<mxfile host="app.diagrams.net" modified="2023-09-15T07:51:28.045Z" agent="5.0 (Macintosh; Intel Mac OS X 10_15_7) AppleWebKit/537.36 (KHTML, like Gecko) Chrome/105.0.0.0 Safari/537.36" etag="yLsbIIv_fOQboVyuRxyo" version="21.0.8" type="github">
  <diagram name="Страница 1" id="DdjibHLsUt1VlnqXWTYZ">
    <mxGraphModel dx="830" dy="514" grid="0" gridSize="10" guides="1" tooltips="1" connect="1" arrows="1" fold="1" page="1" pageScale="1" pageWidth="2336" pageHeight="1654" math="0" shadow="0">
      <root>
        <mxCell id="0" />
        <mxCell id="1" parent="0" />
        <mxCell id="-ZI4ClVhzQf8G4WTaBH7-1" value="Instructor(Teacher)" style="shape=umlActor;verticalLabelPosition=bottom;verticalAlign=top;html=1;outlineConnect=0;" parent="1" vertex="1">
          <mxGeometry x="245" y="482" width="52" height="102" as="geometry" />
        </mxCell>
        <mxCell id="-ZI4ClVhzQf8G4WTaBH7-2" value="Student" style="shape=umlActor;verticalLabelPosition=bottom;verticalAlign=top;html=1;outlineConnect=0;" parent="1" vertex="1">
          <mxGeometry x="245" y="678" width="52" height="102" as="geometry" />
        </mxCell>
        <mxCell id="-ZI4ClVhzQf8G4WTaBH7-11" value="" style="shape=image;verticalLabelPosition=bottom;labelBackgroundColor=default;verticalAlign=top;aspect=fixed;imageAspect=0;image=data:image/jpeg,/9j/4QO4RXhpZgAATU0AKgAAAAgACAEOAAIAAAB/AAAAbgESAAMAAAABAAEAAAEaAAUAAAABAAAA7gEbAAUAAAABAAAA9gEoAAMAAAABAAIAAAE7AAIAAAAZAAAA/gITAAMAAAABAAEAAIdpAAQAAAABAAABGAAAAABBZG1pbmlzdHJhdG9yIHN5c3RlbSBpY29uLiBTaW1wbGUgaWxsdXN0cmF0aW9uIG9mIGFkbWluaXN0cmF0b3Igc3lzdGVtIHZlY3RvciBpY29uIGZvciB3ZWIgZGVzaWduIGlzb2xhdGVkIG9uIHdoaXRlIGJhY2tncm91bmQAAAAAAEgAAAABAAAASAAAAAFWZWN0b3JTdG9jay5jb20vMjc1MDcwMzgAAAAIkAAABwAAAAQwMjIxkQEABwAAAAQBAgMAkoYABwAAAjAAAAF+oAAABwAAAAQwMTAwoAEAAwAAAAEAAQAAoAIABAAAAAEAAAPooAMABAAAAAEAAAQ4pAYAAwAAAAEAAAAAAAAAAEFTQ0lJAAAAU1NVQ3YzSDRzSUFBQUFBQUFBQ3B4U3kyN0RJQkM4VitvL1JKeGpLZmdSeC8yVnFJYzEwQmdWZ3dXNFZXWGwzd3ZZV05zMnAvcGtaaDh6dXp2TDg5UGhRSHB3a3BHWHd4SmY0UzJWbXAyMzRLWFJBYWJIRGJkQ2MyRURjc3FJNE5JYkswRmhzQWZQQmcyakNLQ2VsWXJ3UFFXSjgrQm5KeHdpRTI0S3J6b1hBemU5Y042d2Q4ek1yWURSZVpsNjdpZ0RuVEtud1hpREE1UFJ2TUVBS0JpL0lvQzBNUERpRnNUL1VKTlhjVjNmaHh6WStId0lFWEpFbUp2N2hHVm9iZjZ2eXZYbmRkZDhFNXBGMGNzZHFiWkNDVmczZUYxVHlmdW5GM1pNVTJ4Sk1ITnAwRlFmaG9HS0NSWHFORm5KcEw2aE11T0hkTjVjeHN5c3ZZMFNDSzI2TEo0b1l5Ym9WVHpGVzJnck1qNkFjNkdDWnh6dk92akpqSWhLRzU5bTJGWkNlRGpHeWxQU3ByMjAzYmt0Ni9vVVBvS2RNOGpRSnlsYU50SjVVZ2E0aUtRYjlNZEVUVXNyV3RPeTNMZi95MDliUXBVZC9NaGFEM0oybCtVWUl0Z05sMlB0R3NLblRBU1M0OFBKT0FjQjZQaUZkVjFCNjVvV2RYbTZGSDF6N29xellIM1QxQlZBeFlKdDd0OEFBQUQvL3dNQTIybi83YjREQUFBPQAAAAD/4Q0HaHR0cDovL25zLmFkb2JlLmNvbS94YXAvMS4wLwA8eDp4bXBtZXRhIHhtbG5zOng9ImFkb2JlOm5zOm1ldGEvIiB4OnhtcHRrPSJYTVAgQ29yZSA2LjAuMCI+CiAgIDxyZGY6UkRGIHhtbG5zOnJkZj0iaHR0cDovL3d3dy53My5vcmcvMTk5OS8wMi8yMi1yZGYtc3ludGF4LW5zIyI+CiAgICAgIDxyZGY6RGVzY3JpcHRpb24gcmRmOmFib3V0PSIiCiAgICAgICAgICAgIHhtbG5zOmRjPSJodHRwOi8vcHVybC5vcmcvZGMvZWxlbWVudHMvMS4xLyIKICAgICAgICAgICAgeG1sbnM6cGhvdG9zaG9wPSJodHRwOi8vbnMuYWRvYmUuY29tL3Bob3Rvc2hvcC8xLjAvIgogICAgICAgICAgICB4bWxuczpJcHRjNHhtcEV4dD0iaHR0cDovL2lwdGMub3JnL3N0ZC9JcHRjNHhtcEV4dC8yMDA4LTAyLTI5LyI+CiAgICAgICAgIDxkYzpkZXNjcmlwdGlvbj4KICAgICAgICAgICAgPHJkZjpBbHQ+CiAgICAgICAgICAgICAgIDxyZGY6bGkgeG1sOmxhbmc9IngtZGVmYXVsdCI+QWRtaW5pc3RyYXRvciBzeXN0ZW0gaWNvbi4gU2ltcGxlIGlsbHVzdHJhdGlvbiBvZiBhZG1pbmlzdHJhdG9yIHN5c3RlbSB2ZWN0b3IgaWNvbiBmb3Igd2ViIGRlc2lnbiBpc29sYXRlZCBvbiB3aGl0ZSBiYWNrZ3JvdW5kPC9yZGY6bGk+CiAgICAgICAgICAgIDwvcmRmOkFsdD4KICAgICAgICAgPC9kYzpkZXNjcmlwdGlvbj4KICAgICAgICAgPGRjOmNyZWF0b3I+CiAgICAgICAgICAgIDxyZGY6U2VxPgogICAgICAgICAgICAgICA8cmRmOmxpPlZlY3RvclN0b2NrLmNvbS8yNzUwNzAzODwvcmRmOmxpPgogICAgICAgICAgICA8L3JkZjpTZXE+CiAgICAgICAgIDwvZGM6Y3JlYXRvcj4KICAgICAgICAgPGRjOnN1YmplY3Q+CiAgICAgICAgICAgIDxyZGY6QmFnPgogICAgICAgICAgICAgICA8cmRmOmxpPmFkbWluaXN0cmF0b3I8L3JkZjpsaT4KICAgICAgICAgICAgICAgPHJkZjpsaT5zeXN0ZW08L3JkZjpsaT4KICAgICAgICAgICAgICAgPHJkZjpsaT5pY29uPC9yZGY6bGk+CiAgICAgICAgICAgICAgIDxyZGY6bGk+c2ltcGxlPC9yZGY6bGk+CiAgICAgICAgICAgICAgIDxyZGY6bGk+dmVjdG9yPC9yZGY6bGk+CiAgICAgICAgICAgICAgIDxyZGY6bGk+aXNvbGF0ZWQ8L3JkZjpsaT4KICAgICAgICAgICAgICAgPHJkZjpsaT5ibGFjazwvcmRmOmxpPgogICAgICAgICAgICAgICA8cmRmOmxpPmJ1c2luZXNzPC9yZGY6bGk+CiAgICAgICAgICAgICAgIDxyZGY6bGk+Y29tcHV0ZXI8L3JkZjpsaT4KICAgICAgICAgICAgICAgPHJkZjpsaT5kZXNpZ248L3JkZjpsaT4KICAgICAgICAgICAgICAgPHJkZjpsaT5wZXJzb248L3JkZjpsaT4KICAgICAgICAgICAgICAgPHJkZjpsaT5zdGFyPC9yZGY6bGk+CiAgICAgICAgICAgICAgIDxyZGY6bGk+bWFuPC9yZGY6bGk+CiAgICAgICAgICAgICAgIDxyZGY6bGk+aW50ZXJuZXQ8L3JkZjpsaT4KICAgICAgICAgICAgICAgPHJkZjpsaT5vZmZpY2U8L3JkZjpsaT4KICAgICAgICAgICAgICAgPHJkZjpsaT5wcmVzZW50YXRpb248L3JkZjpsaT4KICAgICAgICAgICAgICAgPHJkZjpsaT5tYWludGVuYW5jZTwvcmRmOmxpPgogICAgICAgICAgICAgICA8cmRmOmxpPm1hbmFnZW1lbnQ8L3JkZjpsaT4KICAgICAgICAgICAgICAgPHJkZjpsaT5zZXR0aW5nPC9yZGY6bGk+CiAgICAgICAgICAgICAgIDxyZGY6bGk+c3VwcG9ydDwvcmRmOmxpPgogICAgICAgICAgICAgICA8cmRmOmxpPnRlYW08L3JkZjpsaT4KICAgICAgICAgICAgICAgPHJkZjpsaT50ZWFtd29yazwvcmRmOmxpPgogICAgICAgICAgICAgICA8cmRmOmxpPmNvbW11bmljYXRpb248L3JkZjpsaT4KICAgICAgICAgICAgICAgPHJkZjpsaT5hZmZpbGlhdGU8L3JkZjpsaT4KICAgICAgICAgICAgICAgPHJkZjpsaT5kZXBhcnRtZW50PC9yZGY6bGk+CiAgICAgICAgICAgICAgIDxyZGY6bGk+Y29udHJvbDwvcmRmOmxpPgogICAgICAgICAgICAgICA8cmRmOmxpPmludm9sdmU8L3JkZjpsaT4KICAgICAgICAgICAgICAgPHJkZjpsaT5icmFuY2g8L3JkZjpsaT4KICAgICAgICAgICAgICAgPHJkZjpsaT5jb250aW51ZTwvcmRmOmxpPgogICAgICAgICAgICAgICA8cmRmOmxpPmNvbnRyaWJ1dGU8L3JkZjpsaT4KICAgICAgICAgICAgICAgPHJkZjpsaT5qb2I8L3JkZjpsaT4KICAgICAgICAgICAgICAgPHJkZjpsaT5hZmZlY3Q8L3JkZjpsaT4KICAgICAgICAgICAgICAgPHJkZjpsaT5iYXI8L3JkZjpsaT4KICAgICAgICAgICAgICAgPHJkZjpsaT5jaGFydDwvcmRmOmxpPgogICAgICAgICAgICAgICA8cmRmOmxpPmdyYXBoPC9yZGY6bGk+CiAgICAgICAgICAgICAgIDxyZGY6bGk+Y29tbWVudDwvcmRmOmxpPgogICAgICAgICAgICAgICA8cmRmOmxpPmNvbm5lY3Q8L3JkZjpsaT4KICAgICAgICAgICAgICAgPHJkZjpsaT5jb252ZXJzYXRpb248L3JkZjpsaT4KICAgICAgICAgICAgICAgPHJkZjpsaT5kZWFsPC9yZGY6bGk+CiAgICAgICAgICAgICAgIDxyZGY6bGk+ZGlzY3VzczwvcmRmOmxpPgogICAgICAgICAgICAgICA8cmRmOmxpPmVtcGxveW1lbnQ8L3JkZjpsaT4KICAgICAgICAgICAgICAgPHJkZjpsaT5maW5kPC9yZGY6bGk+CiAgICAgICAgICAgICAgIDxyZGY6bGk+ZnVuY3Rpb248L3JkZjpsaT4KICAgICAgICAgICAgICAgPHJkZjpsaT5nZWFyPC9yZGY6bGk+CiAgICAgICAgICAgICAgIDxyZGY6bGk+aW1wbGljYXRlPC9yZGY6bGk+CiAgICAgICAgICAgICAgIDxyZGY6bGk+aW50ZXJlc3Q8L3JkZjpsaT4KICAgICAgICAgICAgICAgPHJkZjpsaT5pbnRlcm5hbDwvcmRmOmxpPgogICAgICAgICAgICAgICA8cmRmOmxpPmxpbms8L3JkZjpsaT4KICAgICAgICAgICAgICAgPHJkZjpsaT5vcmdhbml6YXRpb248L3JkZjpsaT4KICAgICAgICAgICAgICAgPHJkZjpsaT5wcmVzZW50PC9yZGY6bGk+CiAgICAgICAgICAgIDwvcmRmOkJhZz4KICAgICAgICAgPC9kYzpzdWJqZWN0PgogICAgICAgICA8ZGM6dGl0bGU+CiAgICAgICAgICAgIDxyZGY6QWx0PgogICAgICAgICAgICAgICA8cmRmOmxpIHhtbDpsYW5nPSJ4LWRlZmF1bHQiPkFkbWluaXN0cmF0b3Igc3lzdGVtIGljb24sIHNpbXBsZSBzdHlsZTwvcmRmOmxpPgogICAgICAgICAgICA8L3JkZjpBbHQ+CiAgICAgICAgIDwvZGM6dGl0bGU+CiAgICAgICAgIDxwaG90b3Nob3A6SGVhZGxpbmU+QWRtaW5pc3RyYXRvciBzeXN0ZW0gaWNvbiwgc2ltcGxlIHN0eWxlPC9waG90b3Nob3A6SGVhZGxpbmU+CiAgICAgICAgIDxJcHRjNHhtcEV4dDpIZWFkbGluZT5BZG1pbmlzdHJhdG9yIHN5c3RlbSBpY29uLCBzaW1wbGUgc3R5bGU8L0lwdGM0eG1wRXh0OkhlYWRsaW5lPgogICAgICA8L3JkZjpEZXNjcmlwdGlvbj4KICAgPC9yZGY6UkRGPgo8L3g6eG1wbWV0YT4K/+ICKElDQ19QUk9GSUxFAAEBAAACGGFwcGwEAAAAbW50clJHQiBYWVogB+YAAQABAAAAAAAAYWNzcEFQUEwAAAAAQVBQTAAAAAAAAAAAAAAAAAAAAAAAAPbWAAEAAAAA0y1hcHBs7P2jjjiFR8NttL1PetoYLwAAAAAAAAAAAAAAAAAAAAAAAAAAAAAAAAAAAAAAAAAKZGVzYwAAAPwAAAAwY3BydAAAASwAAABQd3RwdAAAAXwAAAAUclhZWgAAAZAAAAAUZ1hZWgAAAaQAAAAUYlhZWgAAAbgAAAAUclRSQwAAAcwAAAAgY2hhZAAAAewAAAAsYlRSQwAAAcwAAAAgZ1RSQwAAAcwAAAAgbWx1YwAAAAAAAAABAAAADGVuVVMAAAAUAAAAHABEAGkAcwBwAGwAYQB5ACAAUAAzbWx1YwAAAAAAAAABAAAADGVuVVMAAAA0AAAAHABDAG8AcAB5AHIAaQBnAGgAdAAgAEEAcABwAGwAZQAgAEkAbgBjAC4ALAAgADIAMAAyADJYWVogAAAAAAAA9tUAAQAAAADTLFhZWiAAAAAAAACD3wAAPb////+7WFlaIAAAAAAAAEq/AACxNwAACrlYWVogAAAAAAAAKDgAABELAADIuXBhcmEAAAAAAAMAAAACZmYAAPKnAAANWQAAE9AAAApbc2YzMgAAAAAAAQxCAAAF3v//8yYAAAeTAAD9kP//+6L///2jAAAD3AAAwG7/7QOgUGhvdG9zaG9wIDMuMAA4QklNBAQAAAAAA2gcAVoAAxslRxwCAAACAAIcAhkADWFkbWluaXN0cmF0b3IcAhkABnN5c3RlbRwCGQAEaWNvbhwCGQAGc2ltcGxlHAIZAAZ2ZWN0b3IcAhkACGlzb2xhdGVkHAIZAAVibGFjaxwCGQAIYnVzaW5lc3McAhkACGNvbXB1dGVyHAIZAAZkZXNpZ24cAhkABnBlcnNvbhwCGQAEc3RhchwCGQADbWFuHAIZAAhpbnRlcm5ldBwCGQAGb2ZmaWNlHAIZAAxwcmVzZW50YXRpb24cAhkAC21haW50ZW5hbmNlHAIZAAptYW5hZ2VtZW50HAIZAAdzZXR0aW5nHAIZAAdzdXBwb3J0HAIZAAR0ZWFtHAIZAAh0ZWFtd29yaxwCGQANY29tbXVuaWNhdGlvbhwCGQAJYWZmaWxpYXRlHAIZAApkZXBhcnRtZW50HAIZAAdjb250cm9sHAIZAAdpbnZvbHZlHAIZAAZicmFuY2gcAhkACGNvbnRpbnVlHAIZAApjb250cmlidXRlHAIZAANqb2IcAhkABmFmZmVjdBwCGQADYmFyHAIZAAVjaGFydBwCGQAFZ3JhcGgcAhkAB2NvbW1lbnQcAhkAB2Nvbm5lY3QcAhkADGNvbnZlcnNhdGlvbhwCGQAEZGVhbBwCGQAHZGlzY3VzcxwCGQAKZW1wbG95bWVudBwCGQAEZmluZBwCGQAIZnVuY3Rpb24cAhkABGdlYXIcAhkACWltcGxpY2F0ZRwCGQAIaW50ZXJlc3QcAhkACGludGVybmFsHAIZAARsaW5rHAIZAAxvcmdhbml6YXRpb24cAhkAB3ByZXNlbnQcAlAAGFZlY3RvclN0b2NrLmNvbS8yNzUwNzAzOBwCBQAnQWRtaW5pc3RyYXRvciBzeXN0ZW0gaWNvbiwgc2ltcGxlIHN0eWxlHAJpACdBZG1pbmlzdHJhdG9yIHN5c3RlbSBpY29uLCBzaW1wbGUgc3R5bGUcAngAfkFkbWluaXN0cmF0b3Igc3lzdGVtIGljb24uIFNpbXBsZSBpbGx1c3RyYXRpb24gb2YgYWRtaW5pc3RyYXRvciBzeXN0ZW0gdmVjdG9yIGljb24gZm9yIHdlYiBkZXNpZ24gaXNvbGF0ZWQgb24gd2hpdGUgYmFja2dyb3VuZDhCSU0EJQAAAAAAEHXP5dB1PfY67kAlr6Ey+1T/2wCEAAEBAQEBAQIBAQIDAgICAwQDAwMDBAUEBAQEBAUGBQUFBQUFBgYGBgYGBgYHBwcHBwcICAgICAkJCQkJCQkJCQkBAQEBAgICBAICBAkGBQYJCQkJCQkJCQkJCQkJCQkJCQkJCQkJCQkJCQkJCQkJCQkJCQkJCQkJCQkJCQkJCQkJCf/dAAQAP//AABEIA8wD6AMBIgACEQEDEQH/xAGiAAABBQEBAQEBAQAAAAAAAAAAAQIDBAUGBwgJCgsQAAIBAwMCBAMFBQQEAAABfQECAwAEEQUSITFBBhNRYQcicRQygZGhCCNCscEVUtHwJDNicoIJChYXGBkaJSYnKCkqNDU2Nzg5OkNERUZHSElKU1RVVldYWVpjZGVmZ2hpanN0dXZ3eHl6g4SFhoeIiYqSk5SVlpeYmZqio6Slpqeoqaqys7S1tre4ubrCw8TFxsfIycrS09TV1tfY2drh4uPk5ebn6Onq8fLz9PX29/j5+gEAAwEBAQEBAQEBAQAAAAAAAAECAwQFBgcICQoLEQACAQIEBAMEBwUEBAABAncAAQIDEQQFITEGEkFRB2FxEyIygQgUQpGhscEJIzNS8BVictEKFiQ04SXxFxgZGiYnKCkqNTY3ODk6Q0RFRkdISUpTVFVWV1hZWmNkZWZnaGlqc3R1dnd4eXqCg4SFhoeIiYqSk5SVlpeYmZqio6Slpqeoqaqys7S1tre4ubrCw8TFxsfIycrS09TV1tfY2dri4+Tl5ufo6ery8/T19vf4+fr/2gAMAwEAAhEDEQA/AP7+KKKKACiiigAooooAKKKKACiiigAooooAKKKKACiiigAooooAKKKKACiiigAooooAKKKKACiiigAooooAKKKKACiiigAooooAKKKKACiiigAooooAKKKKACiiigAooooAKKKKACiiigAooooAKKKKACiiigAooooAKKKKACiiigAooooAKKKKACiiigAooooAKKKKACiiigAooooAKKKKACiiigAooooAKKKKACiiigAooooAKKKKACiiigAooooAKKKKACiiigAooooAKKKKACiiigAooooAKKKKACiiigAooooAKKKKACiiigAooooAKKKKACiiigAr/AHr/f4r/AHoA//Q/v4ooooAKKKKACiiigAooooAKKKKACiiigAooooAKKKKACiiigAooooAKKKKACiiigAooooAKKKKACiiigAooooAKKKKACiiigAooooAKKKKACiiigAooooAKKKKACiiigAooooAKKKKACiiigAooooAKKKKACiiigAooooAKKKKACiiigAooooAKKKKACiiigAooooAKKKKACiiigAooooAKKKKACiiigAooooAKKKKACiiigAooooAKKKKACiiigAooooAKKKKACiiigAooooAKKKKACiiigAooooAKKKKACiiigAooooAKKKKACiiigAooooAKKKKACv8Aev9/iv8AegD/9H+/iiiigAooooAKKKKACiiigAooooAKKKKACiiigAooooAKKKKACiiigAooooAKKKKACiiigAooooAKKKKACiiigAooooAKKKKACiiigAooooAKKKKACiiigAooooAKKKKACiiigAooooAKKKKACiiigAooooAKKKKACiiigAooooAKKKKACiiigAooooAKKKKACiiigAooooAKKKKACiiigAooooAKKKKACiiigAooooAKKKKACiiigAooooAKKKKACimeYnrT6ACiiigAooooAKKKKACiiigAooooAKKKKACiiigAooooAKKKKACiiigAooooAKKKKACiiigAr/AHr/f4r/AHoA//9L+/iiiigAooooAKKKKACiiigAooooAKKKKACiiigAooooAKKKKACiiigAooooAKKKKACiiigAooooAKKKKACiiigAooooAKKKKACiiigAooooAKKKKACiiigAooooAKKKKACiiigAooooAKKKKACiiigAooooAKKKKACiiigAooooAKKKKACiiigAooooAKKKKACiiigAooooAKKKKACiiigAooooAKKKKACiiigAoorC1fVtL0LTZ9W125is7S1jaSaeZlSKKNBuZmZsKqr/eagDdri/GvjvwN8NfDV14y+Ims2Wg6PYruuL7UbmO1toVHeSaVkRf+BNX8uX/AAUf/wCDqf8AZN/ZlN/8NP2M7WL4w+M4d8R1CKVovDlnIvy/Ndp896y/3LX5G/57rX8IX7bP/BRX9sX/AIKG+NP+Ex/aq8ZXOvQxSs9lo8P+jaPYf9elgn7pW/6aNulb+KVqAP8AXD+Ff7ef7E3xy8TjwN8F/i74O8Va0ThdP0rW7G6umx/dhilZ2/4CtfXKtmv8Ky0nnsLuLUdPd7e5tXWSGWEtG8cifdaORPmVk/vL81f6Z/8AwbM/8FWvFv7df7Oerfs9ftBa02r/ABN+GPk/6bctm61XRJvlt7qVv+Wk1vKGtppP4v3TN88jUAf1DUUUUAFfm3/wVE/4KP8Awn/4JffsuX37Q/xLgbVr6W4XTdB0SGRYZ9T1KZWaOFZG3eXGixvLNJsbZEh+Vm2o36RN92v847/g74/asHxK/bO8FfspaHNusPhnof8AaF/GO2p67tba3+0lnFDj/rsaAPjb4n/8HRf/AAV+8eeOJ/E/hHxno/gzTWk3w6PpWi2M9vCv8KtJfxXNxJ/vM67v7q1+gv7Lf/B4j+0l4OFvov7X3w10nxraoNj6l4cmbSL7/ea2n+0Wsjf7rwV/G9RQB/q1/ss/8HI3/BKH9p6a20ebx8fh3rV0VRdP8ZQf2V8391bzc9i3/gRX7ieGPFvhnxrokHibwdqFtqmm3K74LuzmjngkX+8kkTMrCv8ADQ/hK/wtX0F+z/8AtXftN/sp6yPEH7NXj7XvAtxu3MNGvZraCT/rpbI32eT/ALaxNQB/tqAg9KdX+ad+yz/wdt/8FBvhA0GkftGaFoHxY0yPaHnkj/sXVSqf9PNqr2jN/vWn/Aq/pB/Za/4Osf8AgmP8dFttH+MN3rHwk1ab5XXxBa/aNP3f3Vv7LzkVf9qdIqAP6cKK8y+F/wAWfhf8bPBdn8Rvg94i07xRoF+u621HSrmK8tZPXbLCzp/8TXptABRRRQAUUUUAFFFFABRRRQAUUUUAFFFFABRRRQAUUUUAFFFFABRRRQAV/gD1/v8AFf4A9AH/0/7+KKKKACiiigAooooAKKKKACiiigAooooAKKKKACiiigAooooAKKKKACiiigAooooAKKKKACiiigAooooAKKKKACiiigAooooAKKKKACiiigAooooAKKKKACiiigAooooAKKKKACiiigAooooAKKKKACiiigAooooAKKKKACiiigAooooAKKKKACiiigAooooAKKKKACiiigAooooAKKKKACiiigAooooAKYXVa+Ef+ChH/BQL4C/8E2/2dL/9ov493E32SOVbPTdMtApvtTv5VLR2tsrsi7mVWZmZlSJFLt0r/N3/AOCjf/Bwz+3l/wAFAft/gTTdU/4Vj8Orrcn/AAj3h6eSOW5h/u6jqPyT3Hy/fji8qD/pk1AH9rX/AAUj/wCDj79hn9g6TUPh14Gvl+K3xGtd0Z0XQJ0NnZzf3b/Ufnhh2/xRRCWf/pktfwM/8FC/+Cyn7dn/AAUn1GfTPjj4nOleDWffb+EtD32mkIv8PnLu829ZP71yzf7CLX5UxxpGoRFAC/dAG1Vp9ABRRRQAV91f8E1/23/Fv/BO79s3wZ+1P4X8yez0i4+za1ZRn/j90e5/dX9vt/ibyv3kP/TWNGr4VooA/wBxTwR8SfAnxF+HWk/FfwZqcF/4d1yxt9SsNQRv3E1rcxrLDMrN/C6MrCvHvGH7bn7G3w8do/H/AMWPBuhun3kv9e0+3Yf8BecV/i/6t8R/iLr3h+x8I634h1W+0jS4Vt7OwuL24ltbaFPuxwwNJ5Uacn5VTZXBrY2Ebb0t4gfURqtAH+xtrf8AwWG/4JYaAsp1H9oTwCvk8usevWcrbf8AZWKR93/Aa/ydP23P2kNY/a+/a9+JP7TmsFlfxp4hvtQgjc5MNn5nlWUP/bG2jiX/AIDXy6vyfc4ooAKKKKACiiigAooooA/cf/ggL/wUZ+Jv7CX7d3g/wdbanN/wrv4k6vZ6B4k0ks32UtfSLbW2oLH9xbm3ndP3i/M0RdH/AIdv+scjblr/AB2f+COX7Ot/+1L/AMFOvgv8JrWIvap4ktdb1Aj+Cx0Rv7Rmb/gfkLF/vOtf7EqYx6d6AJKKKKACiiigAooooAKKKKACiiigAooooAKKKKACiiigAooooAKKKKACv8Aev9/iv8AegD//1P7+KKKKACiiigAooooAKKKKACiiigAooooAKKKKACiiigAooooAKKKKACiiigAooooAKKKKACiiigAooooAKKKKACiiigAooooAKKKKACiiigAooooAKKKKACiiigAooooAKKKKACiiigAooooAKKKKACiiigAooooAKKKKACiiigAooooAKKKKACiiigAooooAKKKKACiiigAooooAKKKKACiiigAooooA/wA/L/g818U+NZfjl8DfBVwZF8Nw6HrN9brj5Hv3ubeCZv8AeSARf8Bf/ar+LSv9V3/g4t/4J2yft5/8E/8AV9V8C2X2rx98MGl8TeHwi5lnjij/AOJjYr/18WylkX+KeKKv8p+ORJFDocqy5U0APooooAKKKKACiiigAooooAKKKKACiiigAooooAKKKKAP7Sf+DOL9mJfEfxr+K37YGtQAw+GdNtfCulyOP+XrUmW8vWX/AGkggt1/7aV/oH1/kg/8Ekv+C1n7R/8AwSo8WS6J4chj8V/DHWb1bvWvC9wViJm2rE11YXO3dbXPlRqvzbopdqqyr8rL/p2fsR/t2/s1/wDBQz4I2fxz/Zk19dW02TbFe2so8q/02627mtb22zuhmT/vh1+aJmQq1AH2lRRTWbbQA6iuC174j/D7wvqcWi+JNb0/Try5/wBVBc3UMEr/AO6jsrGu6R0b7tAD6KKKACiiigAooooAKKKKACiiigAooooAKKKKACiiigAr/AHr/f4r/AHoA//V/v4ooooAKKKKACiiigAooooAKKKKACiiigAooooAKKKKACiiigAooooAKKKKACiiigAooooAKKKKACiiigAooooAKKKKACiiigAooooAKKKKACiiigAooooAKKKKACiiigAooooAKKKKACiiigAooooAKKKKACiiigAooooAKKKKACiiigAooooAKKKKACiiigAooooAKKKKACiiigAooooAKKKbuWgB1FFFAET/AHfSv8iL/gul+y58Iv2Qv+CnPxG+GHwR1WwvfD19cR65FY2MiudHm1LdPNpcyp/q2t5MskX8FvJFvr+4v/g4G/4LY6X/AME5vhV/woX4CXsN18avGFo0lqfllTQNPfcv9pTr91pn2lbOJvvMpkb5I9rf5iOta1rHibWrzxH4jvJtQ1DUJpLq6url2lnnmmbdJNJI3zSSOzFnZvvMaAMyiiigAooooAKKKKACiiigAooooAKKKKACiiigAooooAK+zv2Ef29/2kP+CdPx4s/j3+zfq32O8j2w6lp1wWbT9Ws925rO9gT70X9xl/exN80TK33vjGigD/Vf+Df/AAcd/wDBM/x5+xxbftXfEjxnB4MvY2+xal4SuW+0a5BqSJua3trSBfNu4nHzQ3MSeSyn5mjZWRP5ef8Agop/wdf/ALT/AMexf/Dn9hfTX+FXheQtH/blz5dx4huY/u7o/v29hu/6ZefKv8Mq1/JHtTO7HP3c0+gDb8YeJvEnxD8TXXjb4hahc69rN9K01xqGpTSXl1NI/wB5pJp2dmb/AIFX9Tf/AAbgf8Fmfi1+z5+0v4d/Yq/aG8U3Or/C3xzMuk6SdTnadtC1ab/j08iaVnaOzuJP3DwbtiO6Spt/ebv5SafHJLbzJc20jQyRlSkkZ2ujJ91lb+Fk+9uoA/3U1O4Zp1fjH/wQx/4KKw/8FIf2C/D3xD8UXaz+O/Cu3w94sjz87ahbRrtvNv8AdvYSk/8Ad3s6j7tfs5QAUUUUAFFFFABRRRQAUUUUAFFFFABRRRQAUUUUAFf4A9f7/Ff4A9AH/9b+/iiiigAooooAKKKKACiiigAooooAKKKKACiiigAooooAKKKKACiiigAooooAKKKKACiiigAooooAKKKKACiiigAooooAKKKKACiiigAooooAKKKKACiiigAooooAKKKKACiiigAooooAKKKKACiiigAooooAKKKKACiiigAooooAKKKKACiiigAooooAKKKKACiiigAooooAKKKKACiimOdq5oA/Kj/gqv8A8FYPgF/wSm+DNp8Q/ijFPr3iTX5JLfw94bsnWO51CaFVaR2kf5YLWHcvnTsrbcqqqzsq1/GHrf8AweB/8FFrvxr/AG3oPgjwFY6Ir/JpcttqFw/l/wB1rv7XC27/AGlhX/cr4u/4OVv2o5v2lv8Agq7420KxujPonwxgt/B9gmfkWazXz78r/wBvcsiv/wBcl/u1+B1AH+hF+y7/AMHiv7NXi5IdH/a5+G2teCLtgqvqOhSrrWn7v7zRt9muo1/3Ulr9Of2lP+DiX/gnN8M/2OPEf7TfwG+IWjfELXbSNbXSPDNvO0Go3Go3Ct5EdxZSql1BAmC00rJtVEO35iqt/lSUMu5t/egD1f48fHH4p/tMfGLxF8fPjfq0mueKvFV7Jf6heSfLvkf7qxr/AMs4oVVYoYk+RIgqfw15RRRQAUUUUAFFFFABRX3T+wn/AME3/wBrz/go38Rm+Hv7L3heTUobSRV1PWbo/Z9I0xX/AIru72uitt+ZIIka4b+GKv7zv+Cf/wDwar/sRfs12dl4z/auJ+MvjGPbK8V8jW2gQP8A3Y9NVv8ASNv968eXd/zzWgD/ADyfgD+yf+03+1Tq39ifs0/D7xB46nVtrnRrCa6ij/66XKL9nj/7astftX8Iv+DWX/grt8To4bvxP4c8PeBYZhn/AIn2tQtKq/7UOnreMv8Au76/0/PCPgvwf8PvDtt4Q8C6TZ6NpNmmy3sbCCO2toVH8McMSoir/urXW+WnpQB/nT6b/wAGbX7b01qH1j4teBrabukVtqk6/wDfXlQ/+gVzvin/AIM6v2/tLs3uPCXxH8Baw6jKxSnVLEn/AIF9mmSv9H2igD/Jj+OX/Buf/wAFgPgTZzapefCiTxbZQ7v33hS9tdVY/wC7bI0N1/5L1+NXjTwT4z+G/iWfwT8RdHvvD2s2rbZdP1S2ms7pP96C4VJf/HK/3LjGjdRXzd+0b+yJ+zH+114PfwH+0z4E0bxtphBVI9VtY5nh/wBqCb/Wwt/tROrUAf4ndFf3V/8ABRn/AINFbRba/wDiZ/wTT8QPHKu6U+C/ElxvR/8ApnYam/zK39yK83L/ANN1r+Jn4t/B74qfAP4ian8I/jZ4evvCvibRX8q90zUoWguIW/hZlb7yv95JF3IyfMjNQB51RRRQAUUUUAFFFFABRRRQB+8//Bu3/wAFGf8AhgT9vnTNE8c332X4e/FFrfw5r/mNtitrh5P+Jdft/Av2ed/Kdv8AnlM/92v9W5G3LX+FOypIpR+Vb5TX+rJ/wbtf8FGn/b//AGB9K0nxzf8A2r4h/DHyfDniPzDmW5jSP/iX6g3/AF92y/O3/PeOWgD996KKKACiiigAooooAKKKKACiiigAooooAKKKKACv8Aev9/iv8AegD//X/v4ooooAKKKKACiiigAooooAKKKKACiiigAooooAKKKKACiiigAooooAKKKKACiiigAooooAKKKKACiiigAooooAKKKKACiiigAooooAKKKKACiiigAooooAKKKKACiiigAooooAKKKKACiiigAooooAKKKKACiiigAooooAKKKKACiiigAooooAKKKKACiiigAooooAKKKKACiiigArwj9pb43eG/2bf2e/Gv7QHi9kXTfBeiX2tXAc7dy2UDTeX/wMqF/Gvd6/l4/4OxP2oB8FP+CaKfBTSrnytV+LOvW2jmMdTptj/p163+7+6hif/rpQB/mpeNPGfiT4keMtX+IvjKYz6x4gvbrVL+VjuZ7q8maeZv8Av45rm6KKACiiigAooooAKKKKACv6Hv8AgiT/AMEGPif/AMFNPEMPxp+L5uvCvwT024KTahF+7vNcmhb95a6azfdiRvlmu9jInKRbpd3leLf8EO/+CSHiT/gqZ+0ubLxatxp/wq8FvDdeK9Ri3I8+/wCaHS7aT+Ge72ne3/LK3y33mi3f6s/w8+Hvgj4T+CdJ+Gvw30q20XQdDtYbHTrCzjWKC2t4V2RxxxrwqotAHFfAT9nn4Mfsu/CrSvgp+z94csvCnhbRk2Wmn2EeyNf7zsfvSSP955JGZ2b5mZq9xoooAKKKKACiiigAooooAK/Lv/gph/wSh/ZX/wCCoHws/wCEM+Nmn/2f4l0+KRdB8UWMajU9Lkf+FWb/AF1szfftpP3T/wCy21l/USigD/GK/wCCgf8AwT4/aG/4JtftAXnwD/aDsVDgNcaRq1sG/s/VrHdtW6tGb/vmaJvmib5G/hZvhyv9kb/gpV/wTn+CH/BTP9mXU/gF8XYPs16u668P63FGpu9H1JV2xXMP95f4ZovuyxEp/dZf8jP9p/8AZq+Ln7Hnx78Tfs2/HTT/AOy/E/hW7a1uoxuMUy/eguIWb/WQXETLJC38SH+/uoA8FooooAKKKKACiiigAr9iv+CGP/BQ+f8A4Jyft9eHfiD4ivDb+BPF23w54tUn92ljcyL5F3/vWM+2Td/zy81f4q/HWmFUZSjrlW+Ug96AP9062uIby3S6tnWSOQZVlOQR6rV2vwZ/4Nvf2lfGv7Tv/BKDwDrXxDuJLzVvCU994Ue6lO554dHm8q1Zm/iZbYxRu38Wyv3moAKKKKACiiigAooooAKKKKACiiigAooooAK/wB6/3+K/wB6AP//Q/v4ooooAKKKKACiiigAooooAKKKKACiiigAooooAKKKKACiiigAooooAKKKKACiiigAooooAKKKKACiiigAooooAKKKKACiiigAooooAKKKKACiiigAooooAKKKKACiiigAooooAKKKKACiiigAooooAKKKKACiiigAooooAKKKKACiiigAooooAKKKKACiiigAooooAKKKKACiiigBp+Va/zRP+Dtj9qB/i9/wUT0f9nvS592nfCfw9DBLGGyo1TWtt3c/8CW2W0X86/wBJjxR4h0Twf4b1DxX4inS00/TLeW7upn+7HDCplkY/7iqWr/FN/ax+P+r/ALVf7T/xB/aV10nz/HOv32sqD/BDcTN9mj/7YweVF+FAHz9RRRQAUUUUAFFFFABXbfDP4b+NvjJ8RtB+EXw0sG1XxF4o1C30nS7OP7091eSLFBH/AN9N87fwJlq4mv62f+DR79ie0+M37YPib9sXxdaiXSfhPZJaaXvGVOt6ujr5i/3mt7NZP9xpkagD+4L/AIJo/sI/D3/gnH+x/wCFv2YfAYjuJ9Nj+1a1qCja2o6xcqrXt43++/yov8MSIn8NfftNVdoxTqACiiigAooooAKKKKACiiigAooooAK/kf8A+Dqj/gmVZftCfszp+3Z8LdOX/hNfhTbsNZEC/vL/AMN7t027+82nsfPT/pkZ1/u1/XBXO+I/D+ieK/D994Y8R2sd7p2pW8lrdW8i7kmhlUpJGy91ZSV/GgD/AAyaK+2/+Cjv7It9+wn+3D8Sf2WLlZPsfhfV5F0p5PvS6Tcqtzpsn/gNKiv/ALQNfElABRRRQAUUUElV30AFel/Bv4M/Fr9ob4k6Z8H/AIG+Hb7xX4o1mVYrTTNOiaWeT/ab+COJP45JdsSJ8zMtf0uf8EsP+DXz48/tjeFvD37QP7VevL8Pfhvr1rb6lp1np7Q3WuapZ3KrJHIv37eyiljO5Gk82X/pktf3s/sYf8E+v2Rf2AvAB+H/AOyv4MsvDkMwX7ZegedqN+yfx3l7Lunnb/ZZ9i/wKtAHkv8AwSN/Yel/4J3/ALA3gT9mXV7iK816wglv9duIOYpNU1GRrm6EZ7xxM/lI38SIrd6/TKiigAooooAKKKKACiiigAooooAKKKKACiiigAr/AAB6/wB/iv8AAHoA/9H+/iiiigAooooAKKKKACiiigAooooAKKKKACiiigAooooAKKKKACiiigAooooAKKKKACiiigAooooAKKKKACiiigAooooAKKKKACiiigAooooAKKKKACiimFlWgB9FfIX7UX7eH7Hn7F2hf8JD+1H8RtE8FxMu6KC+ul+2TL/0wsk33E3/AGyiav5lf2q/+Dw39mDwS9zoX7Ifw91nx9dLuRNS1mRdE07d/eWPbNeyL/vQxUAf2SM6KMk1jatrWk6Fp0mqa5cxWVrEuXmuGWKNF92b5a/y1f2jf+Dnn/grN8ezc2fhXxXpvwz0y54Ft4V0+NJwv/X7e/abjd/tJ5Vfib8Xv2hvj9+0Dqb618ePHPiDxpdSHcz65qV1f/8Ajs8jov8AwFKAP9dj4w/8Fdf+CY/wFZ7b4o/HXwXYTx/ft4dVgvLge3kWjTS/+OV+eHxD/wCDpv8A4I+eB3eHRPGeteKmX/oDaBqBU/7rXUVsn/j1f5acMcNuuy2AjHog20+gD/Rz8Xf8Hiv/AAT70wlPB3w++IGsehktdNs1/wDHr53/APHK8R1H/g86/Z8jbGk/A3xVcJ6y6npsR/8AHd9f5/VFAH9/Cf8AB558DSwEnwH8TKmeSNX09j/6DXoPhz/g8r/Y5u2UeKvhF44sF7m3l0u5x/5Mw1/njUUAf6ang7/g7f8A+CU/iOSOHxBF428Os3U3uhrNGP8AgVlc3Nfc/wAMf+Dgn/gjx8VZYbXQ/jloemTy8eTrcd1pBU/7TX8EKf8Aj1f5IlG5tuzNAH+3t8Mv2gPgb8a7T+0fg14x0Pxbbbd3m6NqNrfLj/t3kevXVkRq/wALjRdQv/DepJq/hueXTbyNspcWcjQShv8AZki2NX6f/s+/8FsP+CqX7M5gg+Gvxr8Q3djbrtTT9elXW7Xb/d8vUlmdV/3HSgD/AGDaK/z5v2Yv+Dxv46eHGt9H/a9+FWl+J7ZVVH1LwtcSaZdf77Wl001vI3+yksVf0t/sif8ABwj/AMEsv2v7i20Pw98Q4/BniG6+VNH8YJ/Y85b+7FNK32KZvaK4ZqAP2+orNsr+zvraK7spElhlVXR1OVZW+6VbvWlQAUUUUAFFFFABRRRQAUUUUAFFFFABRRRQAUUUUAFFFFAH5Jf8F0/G/i/4e/8ABIv4++JfAkjw6j/wilxa74/vJb3kkdrct/wGCWSv8hQqkbbEG1V+XFf7g/xg+Ffgf45/CrxF8G/iZZi/8PeKdNutK1G2bjzLW8iaGVc/wttY4b+Gv8rr/go3/wAECv27v2C/iHq7+GvCWrfEb4bwyO+m+J9CtZL5vsn8P9o21vvltJ0X5XZk8pm+ZG+baoB+HtFPkV4bqSzlBSWE7ZYz8ro391l+8v8AwKmUAFFFFABRRRQAKAx2V/qi/wDBsb+zta/Af/gkj4G8QSwCLU/iNdX3i27JTaxW8l8i0z/25wQ/nX+VjfF47Gd4fvrExX/e21/tjfsY/Du2+En7Ivww+FdrEsMfh3wnoumhVH/PtYwxH/x5TQB9N0UUUAFFFFABRRRQAUUUUAFFFFABRRRQAUUUUAf56H/B49+znbeFf2kvhP8AtQ6VbpEni/Q7zw/fuo+/daPMs9szf7TwXbr/ALkVfxrV/pIf8Hgnw70/xB/wTh8I/EHZm68M+PNP2t/dhv7O8tpP/HvK/Kv82+gAooooAKFO1lAoooA/1sf+Dej4iz/Ez/gjn8DtVuZvNuNL0abRJM9V/sq9uLNV/wC/UKV+09fzJf8ABpl4kk1z/gkrZ6a5yNF8YeILNR6K80dz/wC16/ptoAKKKKACiiigAooooAKKKKACiiigAooooAKKKKACv8Aev9/iv8AegD//0v7+KKKKACiiigAooooAKKKKACiiigAooooAKKKKACiiigAooooAKKKKACiiigAooooAKKKKACiiigAooooAKKKKACiiigAooooAKKKKACiiigAphZVr82/+Cgv/AAVU/Yz/AOCa3glfEf7R3iZY9Wu4mbTfDunbbnWNQx/zwtdybY/+m0rRRL/fr/Pv/wCCkn/ByV+3N+3M9/8AD/4UXUnwh+HVxui/szRLg/2rdw/9P+qJsl+ZfvxWvlRfwO0lAH9wX/BQT/gvf/wT1/4J9S3vhDxj4m/4TLxxbAj/AIRfwwUvLyKTH3bubcltZfN2nlSX+5E1fxW/tx/8HR3/AAUT/akmvPDHwKubf4LeFJtyJFoTfaNYeP8A6banKu6Nv+vWGD/eav5rvX/aOW92/vUUAbHiPxH4k8ZeIrrxh4x1C61jVr52e4vr6aS5upmf+KSaVnlb/gTVj0UUAFFFFABRRRQAUUUUAFFFFABRRRQAUUUUAFMZY5IyjKCrdQeVNPooA/Q79jT/AIKs/t/fsD3cEf7N/wASNRsNFhOT4fv2/tHRZP7y/Yp96x7v70HlN/tV/ZB+wV/wd1/AL4ly2ngb9vjwxJ8ONWk2ofEOjrLf6Gzf3poPnvbRf+/6f7S1/no0UAf7g/wq+L/ws+Ofgex+JXwd8Rad4p8P6im+11HSbhLq1mHX5JYmZc9Pl+8vSvUa/wAWP9jv9vP9rb9gfx3/AMLB/ZU8bX3heeZ1e7skPn6df/7N7ZS/6PN/vMnmp/Ay1/eV/wAExf8Ag6c/Zr/acn034R/ttW9t8J/G1wVgi1XzWPhq/mf5V/0iX57B2/553O6L+7P/AA0Af1pUVm2V/Z6hbRX1hIksMqK6PGdysrfdKsOCtaVABRRRQAUUUUAFFFFABRRRQAUUUUAFFFFABTDGpp9FAHwx+09/wTV/YP8A2yreX/hpb4V+HvFF1J/zEJbRYNRX/dv7fybpfwlr/M1/4L3/ALB3wK/4J2/t8v8AAj9nOC+tPDF54b03XIoNQu2vHilu5rqKSOOR/n8pPIXYrMzdfmr/AFr2+7X+bf8A8HhfhV9J/wCCi/gPxUg+TWPh9bpnHVrPUr5W/wDHZVoA/k5ooooAKKKKAD5Nw3dM85r/AHLPBPlf8IhpXkY2fY4NuOm3y1r/AAyr5XksZlh++YmUf722v9sH9iz4iW3xc/ZA+FvxTtZBNH4h8J6LqO9Tn5rixhdv/HiaAPqCiiigAooooAKKKKACiiigAooooAKKKKACiiigD+aP/g7BNsv/AASL1fzs7z4r8O+Vz/F9qP8A7Lmv8wOv9IH/AIPCviPZeH/+CeHgn4ab8Xfifx5ZuqZ6w6bY3k8n/jxi/Ov836gAooooAKKKKAP7Rv8Ag3B/4LV/sK/sK/ss6n+yr+1breo+FtTvvFd9rVtqkmnzXGlLb3dvaxpHJNa+dLG++3fdvi2cr81f3G/Af9qb9nH9qDw8niv9nTx1oXjbT2RXaXRr+3vNmf8AnosTM0bf7LKtf4llb3hPxV4q8B+IofGHgPU7zQtWtzmK+06eS0ukb/Zmt2SVf++6AP8Ac4Vs06v8/L/g35/4OB/2g7v9oPw5+w/+3B4hm8Z6H4yuF03w74i1Jt+p2GpP/wAe1rdXH3ri2uG/dI0u6WKUp8zI3y/6BancM0AOooooAKKKKACiiigAooooAKKKKACiiigAr/AHr/f4r/AHoA//0/7+KKKKACiiigAooooAKKKKACiiigAooooAKKKKACiiigAooooAKKKKACiiigAooooAKKKKACiiigAooooAKKKKACiiigAooooAKKK+ff2jv2lPgn+yN8HdW+PH7RHiG18M+F9Dj33V5dH+I/6uKONMvNNKfljiiVmduFWgD2bVNU0/RdPuNV1W4jtbS1jaWaeVlRIo0G5nZmwqqi/MzNwK/iv/AOCun/B1H4e8Azap+z9/wTKmtte1ePdb3vjyZFn0+2b7rLpML/JeyJ/z8Sf6P/cWb7y/hR/wWQ/4L/8Ax4/4KT6tqHwc+FBuvAvwWjk2po4fZfayqN8s2rSRN/q/4ksUbyk/5atIy/L/AD1UAdv8SPiX8RfjF461P4ofFrXL7xL4j1mXz77UtSnkubq5k/vSSN8zf7C/dT7iKqVxFFFABRRRQAUUUUAFFFFABRRRQAUUUUAFFFFABRRRQAUUUUAFFFFABRRRQAUhGaWigD92f+CVH/BfX9rf/gmjfWXw91GaT4hfCdXVZfDOozN5tjHu+ZtJu23tbN/0wbdbt/djZt1f6S37CP8AwUL/AGWv+CjHwiT4wfsyeI11OCDbFqGmzhYNT0ud13CG9tCS0bf3W+aKXG6JmXmv8ZCvof8AZd/as/aB/Yv+MOn/AB4/Zp8S3PhjxJpvy+bAd0VzDu3Na3cDfuri2f8Ajil+T+JNrbWoA/20aK/n7/4I2f8ABeP4G/8ABT3QIfhj4yS38E/GSwt9954feX/RtSWFf3l1pMj/ADSRfxPA3763/i8xP3rf0BK2aAHUUUUAFFFFABRRRQAUUUUAFFFFABRRTWbbQA6v4T/+Dzv4TYt/gN8eLeM4WXXPD11Jjp5q299bL/5Bmr97v+Cj/wDwXz/YQ/4Jzi98Ga/rB8dfEO3UhfCvh6SOa4hk/hW/uP8Aj3sl/wCur+b/AHYmr/Pa/wCCoH/BaH9rn/gqhqltovxfaw8PeBtJvft2leF9KjzBBN5bRLcT3cq/aLifypCu75YuTsiWgD8jqKKKACiiigAUhTvr/U9/4Nh/2irb46/8ElfBPhiaYSan8Nbu+8J3YJy6x20vn2X/AJJzwr/wGv8ALCr+sj/g0n/bbtfgf+2b4h/ZE8YXQg0b4u2Sy6bvO1BrelLJJGvzfda4s2mX/aaFFoA/0kKKap3DNOoAKKKKACiiigAooooAKKKKACiiigAoormPFXiTQPBfhvUPFviq6jsNM0q3lu7y5lO1IbeFTJJIzfwqiqW/CgD/AD2/+DxH9pCHxt+1j8M/2YNKuBJD4D0C41q+Rf4LzWplSNW/2ktrQN/20r+PKvsL/goF+1fqn7cf7afxH/aq1HzBD4v1ia406OQ/NDpsO2Cwh/4BZxRf8CzXx7QAUUUUAFFFFABRRRQB9f8A/BPj4ceLPi7+3f8ABn4ceBNy6pqfjXQ/JkXrEsN9HPJN/wBsYoXk/wCA1/tJx9Pxr/NT/wCDSP8AZfk+LP8AwUK1z9orU7cvp3wp8PSPBIVyo1TWmazg/wCBLbLdt/3zX+lgn3aAHUUUUAFFFFABRRRQAUUUUAFFFFABRRRQAV/gD1/v8V/gD0Af/9T+/iiiigAooooAKKKKACiiigAooooAKKKKACiiigAooooAKKKKACiiigAooooAKKKKACiiigAooooAKKKKACiiigAooooAKKK+Tf2zf2x/gX+wj+z1rv7SX7QmqjTNA0VMJGmHuL26f/UWdpF/y0uZm+VE+rNtRWZQDI/be/be/Z+/4J+fALU/2hf2jtWGn6PZfure2iCyXeoXjK3lWdlD1knl2n5fuqoZ3ZUVmr/Kx/4Klf8ABV79oz/gqh8Zz47+Kk50fwhpMsg8NeFbWVns9Mhf5fMkb5PtF26/665ZP9mLbF8tcr/wUy/4KXfHz/gp9+0HP8Yvi9ObDRdPaS38OeHYZGaz0exdv9Wv/PS5l2q1zc/elb+7Cqov50UAFFFFABRRRQAUUUUAFFFFABRRRQAUUUUAFFFFABRRRQAUUUUAFFFFABRRRQAUUUUAFFFFABRRRQBveE/FfinwH4o0/wAbeBtSudH1nR7iO8sL6ylaC5triFt0c0EifNHIjfxLX+j7/wAEG/8Ag4R0D9ty3039kz9sK9ttI+MEMflabqWFgtPEqov8K/ch1DaNzwL8kvLQ/wAUa/5slXNM1HUtF1K21jR7mWzvLOWOa3uIJGilhmhbdHJHInzKyMqsjL8yMKAP90pWzTq/lB/4N7f+C8dt+2/oVl+x9+1nqSW/xg0i3P8AZupSlY18S2sK/M39xdQhQbpol/1qgyp/y0Vf6vFbNADqKKKACiiigAooooAKKKKACv5Df+DqL/gqL8Wf2TPhr4U/Y+/Z31e48PeJPiRa3V/rWq2jtFdW2iwstusNtMnzRSXcxZXkT5liidVZfM3L/XlX8Gf/AAePfsreNrjxJ8Kf21dIga40C1srjwbqhUf8etw8zX1gzeizZuI9395FX+JaAP4cy25i7nJYs5J+8Wf7zN/tUUUUAFFFFABRRRQAV2Hw/wDHvjP4U+O9E+KPw6v5NK1/w3f2+qabexfft7qzkWWCRf8AcZV/3q4+igD/AGSP+CX/AO314B/4KSfseeFv2lfB5jttQuY/sWv6ahydN1i2VVu7Vv8AZ3ESQt/HC6NX6IV/kif8ETP+Csvin/gld+02Nc177TqXwv8AGBhs/FulQfO6xo37jUraP+K5tNx+X/lrEXi+95bL/q4fDH4neA/jN4C0b4p/CzWLfXvDviC0ivtO1CzfzILm3mXdHJGw/wAj7rc0Ael0UUUAFFFFABRRRQAUUUUAFFFFABX8i/8AwdYf8FMbP9n/APZsg/YN+F2obfGXxTty+tmBv3lh4cVtsit/dbUJF8hP+mST/wCzX7qf8FLP+CjPwQ/4Jmfsy6l8evi5OLm+k3Wnh/RI5FW61fUmXdFaw/3V/imk+7FEC391W/yM/wBp79pP4u/tgfHvxN+0l8ddSOp+J/Fd211dSDcsUa/dgt4Ff/VwW0SrFCv8CL/e3UAeD0UUUAFFFFABRRRQAUUV1HgjwP4k+JvjbRfhp4MhM+seJL+10mwjQbi91eTLBCv/AH8daAP9LL/g1B/ZeX4J/wDBM1fjRq1t5Oq/FnXLnWtx6nT7P/QbBf8Ac/dSSp/10r+n6vDv2cfgr4b/AGcPgJ4M+APg5ANM8F6JY6JbYGMx2FusAb6vt3fjXuNABRRRQAUUUUAFFFFABRRRQAUUUUAFFFFABX+APX+/xX+APQB//9X+/iiiigAooooAKKKKACiiigAooooAKKKKACiiigAooooAKKKKACiiigAooooAKKKKACiiigAooooAKKKKACiiigAooprNtoA8s+Mfxd+HXwF+GGvfGX4t6xb+H/Dfhqyl1DUdQu22xQW8K7mY/wB7+6ir8zMQq/Ma/wAnT/gsZ/wVk+Jv/BVL9ox/FtybjSfh14ZkltvCWgyHb5ELfK19cqvytfXaqN//ADyTbEn3WZv07/4OXP8AgsdL+198XZ/2IP2etV3/AAv8B37LrN5bPuj17WrZtrfMn3rOxbKp/BLcAy/MkcbV/KZQAUUUUAFFFFABRRRQAUUUUAFFFFABRRRQAUUUUAFFFFABRRRQAUUUUAFFFFABRRRQAUUUUAFFFFABRRRQAUUUUAb3hXxT4n8B+KNN8c+CdQudH1nR7qG9sL6zdori2uoW3RzQSJ92RGVWRq/1Mf8Aggz/AMFk9E/4KffBB/BHxPlt7D4x+CbeMa/aR4hTUrf/AFUerWkX/POVvluY1/495zjhJIq/ysK+hP2Vv2n/AIxfsZfH/wANftK/AjUjp3iXwvdefASW8ieFvlmtbhU/1ltcR5jmX+6d33lVqAP9tSivhT/gnh+3f8I/+CjP7LXh39pj4QyeVDqSfZ9T052Dz6ZqkKr9rsZ/9qJj8jdJYikq/Kwr7roAKKKKACiiigAooooAK+Tf23P2T/h7+3B+yz41/Za+JibdN8X6bJaCcAF7W5T95aXUf/TS3nVJU/3a+sqaRkYoA/w+vjd8G/iD+zv8YvFHwH+K1n9g8SeD9SuNJ1KH+EXFtJtZl/vRP8siN/Ejq1eXV/bh/wAHdH/BOw6B4r8O/wDBSP4a2WLXVvs/hvxiIh9y5QbdLvW/66qptHb+8kH96v4j6ACiiigAooooAKKKKACv38/4Iof8F1Pip/wS88XR/C74jx3fiz4Mavdebe6RG2brSZpW/eX2mbm2/P8Aems22JL95GWX5m/AOigD/bY/Zx/aZ+BX7Wvwo0z43fs6+JrPxV4Y1hM217ZNlQwHzRSK2GhmTjfDIqyJ/EtfQFf4vH7EX/BQf9rL/gnh8TT8Tv2WPFMuiSTsv9oabOPtGlajGn/LO9smbZJ/sSJslT+CVa/vC/YA/wCDrv8AY0+P9nZ+Cf2ybRvg94sYKjXrmS68PXD9Ny3ar5tpub+G5TYn/PdqAP6xaK4PwD8R/h98UvC9t42+F+uWHiPRrtc29/plzFeW0q+qTRM6N/31XcqyleDQA+iiigAophkRepr5o/aQ/bD/AGXf2P8AwjJ45/ac8e6N4J01RvRtUuo4pZv9mCD/AFszf7MSM1AH01X5bf8ABTH/AIKxfsq/8Ev/AIWnxh8atQ/tHxNqMMjaD4UsXU6nqciZG5V/5YWyN9+5k/dJ/DubajfzJ/8ABRf/AIO6oZ7S++GX/BNbw/J5p3Rf8Jn4jt9qp/00sNLb5mb+5JebE/6YNX8T3xY+LnxQ+PHxE1P4tfGnX7/xR4n1qXzb3UtTmae4mb+HczfdVPupEu1ET5EVUoA+nv8AgoB/wUF/aJ/4KRfH28+Pf7Qd+HkUNb6VpFsWXT9Isd25bW0jb/vqaRv3srfM38Kr8P0UUAFFFFABRRRQAUUxWR13I2R6in0AFfvv/wAG0X7L/wDw0l/wVh8F67qNsZ9H+GNrdeMLs/wrNZqsFgv/AIFzxSf9sjX4EV/oW/8ABnj+yvN4L/Zh+Iv7W/iC08u68fa1Ho2lyyIQTpuiK3mNG39x7ueVf96H/ZoA/soRdq4p9FFABRRRQAUUUUAFFFFABRRRQAUUUUAFFFFABX+APX+/xX+APQB//9b+/iiiigAooooAKKKKACiiigAooooAKKKKACiiigAooooAKKKKACiiigAooooAKKKKACiiigAooooAKKKKACiiigAr+Xn/AIOWP+Cs11+w9+zhH+zF8EtT+z/FL4oWs0QnhbbLo+h/6q5vVP8ABNcc21q397zJF/1Vf0FftJ/tB/DT9lL4DeLP2ivi/diw8N+DtNm1K+kH3jHCPljjX+KSVtscK/xOyrX+OV+2z+1z8Tf27P2ofF37VHxZcrqviq7aWK0DbksLFPltLGP/AKZW8G1f9pst95moA+VVVFUIgwq/Kop9FFABRRRQAUUUUAFFFFABRRRQAUUUUAFFFFABRRRQAUUUUAFFFFABRRRQAUUUUAFFFFABRRRQAUUUUAFFFFABRRRQAUUUUAfuf/wQR/4Kq6l/wTQ/a5gs/H164+FHj+WHTfE8DFmjs5N2y01ZV/vWjNsm/vW5f+KOOv8AV00++s9Rs4r7TpFmgmRZI3jO5GVxuVlYdVb1r/C8r/R//wCDV7/gp7L+0v8As5XP7Dfxd1Jp/GvwptY20aWdsy3/AIbysUK7m+82nSMLZ/8ApkYP9qgD+tmiiigAooooAKKKKACiiigD5z/au/Zu+Hf7X37OPjL9mb4qwfaNB8Z6XNptyQNzxGQfup4un723kVJo/wDbRa/xof2lf2fPiJ+yh8f/ABf+zh8WYDB4g8GancaXd8bVl8lv3dxH/wBMriJknT/Yda/26q/hc/4O7P8AgnX59j4b/wCClPw0sP3lr9n8N+MvKXrC7bdLvpP9xmNo7f7cH92gD+EqiiigAoopiyJIN6EN9KAH0UUUAFFFFABRRRQB7N8Ev2i/2gP2atd/4Sn9nbxvrvga+Y5aXQr+4sd//XRYmRJP+2qNX7P/AAg/4OeP+CwPwptoNP1TxxpXjS2gXaF8RaNayylf9qay+xyt/wACav5+qKAP64tF/wCDxr9v+1tRDr3wz+H97Iq/6yMapbZ/4D9rmrnvF3/B4P8A8FHNatntvCvgb4f6IT92X7LqV44/7+3yJ/45X8n1FAH7VfHH/g4d/wCCvnx3s5NK1X4u3Phqyk3L9n8LWVro+1f+viKJ7r/yYr8efFvjDxh8QvEc/jPx/q17rusXRzNfalcTXl1J/vTXDPK3/fVc3RQAUUUUAFFFFABRRRQAV+xH/BFb/glZ4v8A+CpH7Vdt4N1GG4tfhp4TeG/8ZapF8mLXd+60+GT/AJ+b7aVT/nlEHl/hXd8e/sI/sL/Hr/goh+0ZpP7N/wCz5YCfUL799f6hMG+x6Vp6MqzX16yfdiTd8i/elbbEnzNX+tT/AME+/wBgn4H/APBOf9mvRf2bvgfbk2tj/pGo6lMqi61XUJQvn3tyV/5aPtARfuxRBYk+VRQB8rftF/8ABBP/AIJS/tM6WLXxh8INJ0O+igS3g1Pw0G0W8jVFCL+8smRZNqqP9ektfzwftQf8Ga26SfWP2M/jAYgxYxaV4ytN6qv93+0dPVG/76tGr+7GigD/AD2f2Wv+DO/9o3V/iBZ337ZHxE0LRvClvLm6tPCrXF9qN1Gjf6uOe6gtorbf/wA9NkrL/dr+8v4JfBv4a/s9fCbw98E/g7pEOg+GPC9jFp2m2FuuI4beFdqr/eZurOzfM7Es3zGvW6KACiiigAooooAKKKKACiiigAooooAKKKKACiiigAr/AAB6/wB/iv8AAHoA/9f+/iiiigAooooAKKKKACiiigAooooAKKKKACiiigAooooAKKKKACiiigAooooAKKKKACiiigAooooAKKKKACmk7RTq+b/2s/2kfAn7IX7NXjb9pn4lSbNG8E6RcanOucGVoV/c26f9NLiVkiT/AGmWgD+KT/g7n/4KLy6/4v0D/gm38Nb/AP0TR/s/iLxiYj966dd2l2Lf9ckJu3X+80H92v4kq9U+OXxo8fftGfGbxV8fvincG68ReMtUutX1CTPy+dcybmjX/plCu2JF/gRFryugAooooAKKKKACiiigAooooAKKKKACiiigAooooAKKKKACiiigAooooAKKKKACiiigAooooAKKKKACiiigAooooAKKKKACiiigAr6z/YY/a88ffsHftX+Cv2qvhxukvPCt+st1aIdq3+nzfur2zb/ZuIC6/wCw2xv4a+TKKAP9wP4L/FrwL8efhN4a+NfwxvV1Lw94s0221bTblT/rLW7jWWJjj7rbW+Zf4WyvavVa/i//AODQ/wDb3f4gfBLxV/wT98d3hk1LwC7a74aEjZZ9Hv5v9Lt1/wBm0vG3f7lyv92v7QKACiiigAooooAKKKKACvEv2g/gX8PP2mfgj4r/AGfvitZi/wDDvi/TbjSb+Hv5Nym3cv8AdkThkb+FgGr22igD/Gu/4KH/APBMv9qX/gmt8YdR+HHx10K6k0OO4kGkeJ4YJG0rVbXd+7ljuduyOXbjzoGdZYmz8rJtZvnz9mj9lH9o/wDbH+IFv8Lv2XfBmpeNNYuCuU06LMFuv/PS5uW2W9tF/tSyqlf7XeqaPpWtWMmnaxbRXdtMu14pkV0f/eVvlNUdA8K+G/COnf2X4Y0+2022Bz5VpFHCmf8AdRVWgD+Mz/gm5/waSfDPwQNP+KH/AAUh1pPGGqjEq+D9Gkki0mFvvbb29+S4vP8ArnF5EP8A10Wvob/gtr/wbi/DX9qPwBD8a/2B9A0vwd8RvC9hHa/2BYRQ2Oma5Y2y7YrdVXZFbXkS/LDN8qyp+6l/gkj/AK1Kay5oA/wyvF3hHxb8P/FWpeBvHml3Wja3o9xJZ3+n30TQXFtcQttkhmjb5o2T+61c9X+r9/wVx/4IUfs1/wDBUXQ5fHK7fA3xYs7cRWHim0hVxcqi4jt9Tg+X7VAPuo25J4v4H2fu2/zOP22f2H/2hv8Agnv8eb39nX9pXTINP1y3gju7eW0nW4tb2xlZkguraRfm8p2jf5ZEWVWBRlWgD5IooooAKKKKACiiigAooooAKKKKACiiigAooooAKKKKAP7i/wDgzz/bB+F2i6l8Qf2HvEOm6fpvivV5F8UaTqaRKl5qdvDGsF1YzSfek+x8Twr/AAJJN/dav7y0+7X+Ix+zV+0L8SP2Tvj/AOEf2kvhFP8AZvEXgvVIdSs8nakmxv3lvJ/0yuImeB1/uOa/2XP2Tv2kPh5+17+zd4M/aY+FsnmaD400u31K1V/vw7x+8t5P+mlvIHif/aQ0AfRtFFFABRRRQAUUUUAFFFFABRRRQAUUUUAFFFFABRRRQAUUUUAFf4A9f7/Ff4A9AH//0P7+KKKKACiiigAooooAKKKKACiiigAooooAKKKKACiiigAooooAKKKKACiiigAooooAKKKKACiiigAooooAK/iR/wCDwn9th/Dfw48AfsD+ELvy7nxRN/wlPiNEPP8AZ9jIYtOhb/Zlu9823/p2Ff20THbGedvvX+Ol/wAFe/2u3/bf/wCCjPxS+PtpcG50abVZNI0M/wAI0nSv9DtGX/rt5Zn/AN6Q0Afm1RRRQAUUUUAFFFFABRRRQAUUUUAFFFFABRRRQAUUUUAFFFFABRRRQAUUUUAFFFFABRRRQAUUUUAFFFFABRRRQAUUUUAFFFFABRRRQAUUUUAfev8AwTA/bH1H9gj9u/4c/tNxSMml6LqS2uuRp/y20W//AHF+u3+LZA3mJ/tRLX+yVpWp6fq+nW+rabMlxbXUayxSodyPG67lZT/dZcGv8L0qhUo4yrdR61/q6/8ABuT+15L+1z/wSy8Df29cm58QfDwyeDNULtudm0pV+xO38Xz2Mlu27+8GoA/eaivx4/4LTf8ABQX46f8ABM39lCz/AGovgz4P0zxnBba5Z6brFtqc9xbLbW18siQ3CtArf8vKxRNu/wCegr+VL/iMx/as/wCiJ+E//BrqH/xqgD/Q0or/ADy/+IzH9qz/AKIn4T/8Guof/GqP+IzH9qz/AKIn4T/8Guof/GqAP9DSiv8APL/4jMf2rP8AoifhP/wa6h/8ao/4jMf2rP8AoifhP/wa6h/8aoA/0NKK/wA8v/iMx/as/wCiJ+E//BrqH/xqj/iMx/as/wCiJ+E//BrqH/xqgD/Q0or/ADy/+IzH9qr+L4J+E8f9hXUP/jVfe37LH/B4p+z9411608N/tdfDLVPAUMxVDrOi3X9tWcX+1NbeVbXSr/1ySdv9mgD+z6ivG/gn8dfhF+0d8N9L+L/wM8SWHivwxrUXm2eo6bMs8Ei/xLuX7rJ910bayN8rKrV7JQAxztXNf48//BZv9quP9sn/AIKZ/Fr4y6ZcC50WPV20HRmH3P7N0T/QYGX/AGZWjln/AO2lf6in/BVL9orVP2T/APgnX8Y/2gfDuV1Tw74XvXsGQ/cvLhfs1s//AACeVG/Cv8atY3jXY7lyvylj1P8AtUAPooooAKKKKACiiigAooqGS6to+JZET6lVoAmoo0//AIm1wLPR/wDTJm+7Hb/vXP8AwFd7V6R4s+DPxj8AeGbDxt488I65oei6pK1vZX2paddWdtczIu5o4JJ4kSRkX5tq/wAFAHm9FFFABRRRQAUUV0vgrwX4y+JHiyw8B/DnSL3Xtc1aVYLLTtOt5Lq6uZP7scESu0n/AAFKAOar/VT/AODY3wh4y8I/8Ec/hs3jAPEmq3mt6lp8cn3hY3OpXDQt/uvzIn+w61/OV/wTP/4NOvjR8UNS0n4r/wDBRm8/4Qvwwrx3B8H6fKsusXsf3vJvbmJvKsIn/jSJpbjblN0DV/oF+DfCXhj4feFNM8CeCrCHS9G0W1hsLCztkCQW1tbIsUUMSr91ERQqr2xQB19FFFABRRRQAUUUUAFFFFABRRRQAUUUUAFFFFABRRRQAUUUUAFf4A9f7/Ff4A9AH//R/v4ooooAKKKKACiiigAooooAKKKKACiiigAooooAKKKKACiiigAooooAKKKKACiiigAooooAKKKKACiiigD8t/8Ags3+1JL+x3/wTN+Lnxp0qcQavHokmk6Qc7W/tHV2Wwtin+0jz+Z/wCv8eyOOOGJIU5WNdq5r/QN/4PJ/2hZ9A+Afwj/Za0qcK3irXLzxDfxj732fR4Vgg3f7Lz3u7/tnX+frQAUUUUAFFFFABRRRQAUUUUAFFFFABRRRQAUUUUAFFFFABRRRQAUUUUAFFFFABRRRQAUUUUAFFFFABRRRQAUUUUAFFFFABRRRQAUUUUAFFFFABX9iH/Bnn+1Avgj9qf4jfsl6zPss/HmiR67p0Z/6CGiSeVOq/wC09tc7v+2Nfx31+iH/AASW/aIf9lX/AIKU/Bb41y3JtLKx8UWdhqEgP/MP1Vm0673f7PlXJb/gNAH+rJ/wUm/Zntv2w/2D/iv+zhJH51z4o8OXsFgv93UIY/Psm/4DcxRNX+MWvnL8lyhik/jjPVG/iX/gDV/uodE9dtf43v8AwVn/AGf0/Zd/4KV/Gr4LWdv9ksNP8U3l3p0f92x1XbqNtt/2fKuVX8KAPzxooooAKKKKACiiigAooooA/Y7/AIIw/wDBWv4lf8EuP2kLPVby9uLz4VeJbqODxdouWeLyX+X+0raP+G7tF+bcv+tiUxN/Cy/61HhzxBonivQbHxN4buo73T9St47q1uITuSWGZQ8cinurKwb8a/wya/1ev+Dbf44a18cP+CQXwtufEkzXN94VXUPC7yyHJaHR7ySC2/74tvKX8KAP0x/ba/Zl0P8AbJ/ZL+If7L2vz/ZIvHGhXmlR3JXd9nmmj/cTbf4vJmVJNv8As1/je/tEfs7/ABm/ZR+M2t/s/ftA6HN4e8W+H5mgurSZdquu75bi2b/ltbSr80M6/IyGv9u+vlT9pj9if9k79sjw7H4X/ah+Hmh+N7aFWWFtUtI5Z7cP977PcfLPB/2ydKAP8VKiv9Gj9qL/AINBP2J/iQ1zrf7LXjHxB8Mb59zpZ3JXXdMX+6qxXDJdqv8A29t/u1/OD+1F/wAGvP8AwVR/Z6+06r8P9B0v4q6NbjPneF7tVvNv+1YXvky7v9mJ5aAP51aK7n4mfC34nfBXxVJ4H+MfhvVPCWswttew1mzm0+4Vv+udwqM3/Aa4agAooooA/p6/4Naf2CPhh+2H+2B40+IXx48L2PizwZ8P/DwRrHVbWO8sZtT1ebyrfzIJldGaKCC4ZP7jbWr/AEAND/4Js/8ABPLw0yyaD8Cvh/asuMNH4b0sMPx8ivxo/wCDUj9l/wD4Ub/wTEg+MWr23k6r8Wtbu9eLEbXOn23+gWC/7jJA86f9dq/p1oA8y8FfBz4TfDlQvw/8MaToSr90afY29rj/AL9RpX5//wDBYf8AYF0r/gov+wb4x/Z/ghj/AOEnii/tfwvcyf8ALDWbFWa2+b+FZwXtn/2JWr9Taay7higD/C11LS9U0PUrnQ9atpLK9s5ZLa4tphtlhmhZlkjkX+FkZSr/AO0Kp1/W7/wc4/8ABIb4kfBX9o/Wf2/PgV4em1L4c+On+3eJP7PhZ/7E1r7tzcXCpvZba+4k877iTmVW27ot38jP2yyZQ/nR4b7p3LzQBZqzZWd5qV9b6bpkMlzc3TrFDBEjO8kj/djjVPmZn/ur81fvb/wTj/4N0/28v2+BYePfFOnN8K/h5c7X/t3xBA63V1D/AHrDS/knm3J9ySX7PF/cZq/vh/4J3f8ABEv9hD/gm5ZQaz8KPDS6740WPbN4s11Y7rVScDcLdtqxWcf+xbIn+0zUAfxV/wDBOP8A4NcP2y/2rjYfEP8Aaukl+DfgibbKILqFZfEV3H/0zsn+Sy3f3rz5/wDp3av7xf2Ff+CXn7FX/BOfwp/wj37MPgu307UJ41S+128/0rWL0f8ATxey/Pt/6ZR7Il/gjWv0OVdtOoAaq7adRRQAUUUUAFFFFABRRRQAUUUUAFFFFABRRRQAUUUUAFFFFABRRRQAV/gD1/v8V/gD0Af/0v7+KKKKACiiigAooooAKKKKACiiigAooooAKKKKACiiigAooooAKKKKACiiigAooooAKKKKACiiigAprfdp1QyY27P73FAH+Yb/AMHYPxpm+Jf/AAVam+Hccga1+HfhbSdJCA/KLi78zU5v+BbLmH/vmv5n6/Q7/grd8VH+NH/BT349/EVJvPhuPGuqWdu2f+XfTZP7Oh/8dtlr88aACiiigAooooAKKKKACiiigAooooAKKKKACiiigAooooAKKKKACiiigAooooAKKKKACiiigAooooAKKKKACiiigAooooAKKKKACiiigAooooAKY0lzCvnWDlJ4+YmH8Mifdb/vqn0KQp30Af7Wv7F3xoi/aM/ZE+GXx7jkWZvGHhbSdXlK/wDPW5tI5ZV/4BIStf59X/B3Z8GYfAP/AAUq8PfFezjxD4+8G2csret1pVxNZyf+QGt6/rE/4Nnfin/ws3/gjp8LrKZ99x4VfVfD0hz/AA2GoTeQP+/DxV+PH/B5z8MVvPhj8CfjLbw/Np+s6xoU0oH8N9aw3ca/99Wj0AfwRUUUUAFFFFABRRRQAUUUUAFf6ff/AAadf8ojNJ/7GvxF/wClK1/mCV/p9/8ABp1/yiM0n/sa/EX/AKUrQB/S7RRRQAUworfeFPooA8j+K/wO+DXx28MyeDPjZ4V0jxdpMmd1nrNlDfQfN/0znV1H5V/P1+1J/wAGq3/BML48x3Oq/CfT9X+E2sSjKSeHLrzbHzP7zafe+dFt/wBmJoq/phooA/zZf2nP+DRL9vv4X3Ul/wDs0+J/DvxR07ftjglkbQtR2/7UV001o3/Abtf92uo/YR/4NLP2vviL8SdP1r9vG70/wD4Js5lkvdN0y+j1DWL+NPvW8Ulvvt7VX+683msy/wAEW75l/wBHKigDiPAHgPwh8LPA+j/Db4fafBpOhaDZQ6dp1jbjbFbWttGsUMMa/wB1EUKK7eiigAooooApXNtb3kDWt0iyRyKVZWGVK+hr5b0n9hf9i7w74yX4j+HfhH4LsfECyeYup2+gafHdCTO7esywb1b/AGq+saKAGLGq9KfRRQAUUUUAFFFFABRRRQAUUUUAFFFFABRRRQAUUUUAFFFFABRRRQAUUUUAFFFFABX+APX+/wAV/gD0Af/T/v4ooooAKKKKACiiigAooooAKKKKACiiigAooooAKKKKACiiigAooooAKKKKACiiigAooooAKKKKACsbWtUs9E0i51m+OIrOJ53P+zEu5v5Vs182fth6+3hD9kz4oeLojtbS/CWt3gPp5GnzP/7LQB/iveNPE1z418a6341vH3za1qF5qLk92vLiSdv/AEOubqnpy7dNtkfr5Uf/AKCtXKACiiigAooooAKKKKACiiigAooooAKKKKACiiigAooooAKKKKACiiigAooooAKKKKACiiigAooooAKKKKACiiigAooooAKKKKACiiigAooooAKKKKAP9Gn/AIM6PiD/AGz+wP8AET4cTHJ8O+PJpkH92O/02zk/9CjevZv+Dt/wYniP/glXD4kSPL+HPG2h3u70W4W4sW/9Hivz1/4MuNfEnhP9ofwi5/1Oo+G71R/11t76Bv8A0StftZ/wcu+G4PEP/BGD4vzsMtpf9iXy/wDbHWLP/wBlJoA/yjqKKKACiiigAooooAKKKKACv9Pv/g06/wCURmk/9jX4i/8ASla/zBK/0gP+DUz9qL9nPS/+CeOn/s76p450K08eQeJtauD4fnv7eDUTDczq0Ei20rJLIrL/ABKjUAf1sUVCrox/xqagAooooAKKKKACuY8S+I/D3g/RLrxR4vv7fS9N0+Nprq7u5VhghhTlneR2VFVf7zV5z8ffjx8KP2ZvhDr/AMdfjfrdv4c8LeG7Q3d9fXRwiIn3VVfvPI7YRI1+Z3KqnzGv8s//AILG/wDBbH46f8FSPiTdeGtMnvPC3wb0ub/iTeFxJt+1bG+W+1bZ8k1y/wB5Im3RW/3E3PukYA/uD+P/APwc9f8ABJL4D67L4b03xlqPxAu7ZmSX/hEtNkvrYFP7t3M1tayf70UrLXlHw7/4OzP+CTvjfXYtI8ST+MPCMMh2/bNW0TfbL7s2nz3jL/3xX+YxRQB/tt/s/ftNfs//ALVHw+g+Kf7OvjDSvGWgXHyi90m5S4jV/wDnnJs+aOQf885FVv8AZr32v8WL9in9ub9pP/gn18arP46fsza/Lo+oxFVvbNiz2Gq2qN81rf2/3Zon/vf62L70TK9f6rX/AAS3/wCCpPwC/wCCpXwEi+KfwrmGl+ItLEcHiXw3PKr3mlXjL93j/WWs20tbXKrslT+7IrooB+odFFFABRRRQAUUUUAFFFFABRRRQAUUUUAFFFFABRRRQAUUUUAFFFFABRRRQAUUUUAFFFFABX+APX+/xX+APQB//9T+/iiiigAooooAKKKKACiiigAooooAKKKKACiiigAooooAKKKKACiiigAooooAKKKKACiiigAooooAK+G/+Cmt9Lpv/BOX493kH34/h54mIz/2C7ivuSvhf/gpxaTXv/BOH4+WtsuXb4d+Jgoz/wBQu4oA/wAYmFdtukf91VqamQndCj/7K0+gAooooAKKKKACiiigAooooAKKKKACiiigAooooAKKKKACiiigAooooAKKKKACiiigAooooAKKKKACiiigAooooAKKKKACiiigAooooAKKKKACiiigD+23/gy/1Dy/iV+0DpO//Wab4bm2Y/uXGoLu/wDHq/pO/wCDhKzF5/wRp+PkJx8vh+OXkf8APG+tX/8AZa/ms/4MwLHzPil+0BqXP7vSvDcWf4fnn1Bv/Za/pW/4ODbhbf8A4I1/H4uM7vDipx/t3lqv9aAP8kZ/9a31qKpX/wBa31qKgAooooAKKKKACiiigApjKjFHcAmM5UnqG/vL/dp9FAH6rfskf8Fsf+Cmn7F32bTPhN8UtT1DQrXaq6H4kP8AbWneX/zzWO6Z5YF/64SxV/VV+xl/weFfB/xZLaeFf27fAF14Ou3wj694YLajpu7+9JZS/wCmwr/1ya6r/P8A6KAP9sH9mz9r79mT9sHwSnxC/Zi8c6P410rC730u5WWSBm/huIP9bA3+zKitX0qrZr/Ds+Ffxc+KnwK8c2vxN+CfiTU/CfiKyOYdS0e5ezuk/wBnzImTcv8AstuT/Zr+tL/gn9/wdvfH74XSWPgH/goD4fHxB0Rdsf8AwkmiRw2etQr/AHprT5LW8/4B9nb/AHmoA/0Q68V+PHx1+E/7Mvwm1v45fHLXLbw34U8N2rXV/qF02EjRPuhV+9JI7YVI0DO7lURWZq+SfhV/wVh/4J8fGj9m3W/2svAHxT0abwX4Ys/tmt3E8vkXWlr/AM87uylCXUUrN8kcXlbpWwsW/K1/nG/8Fpv+C0vxT/4KnfFMeGfDX2nw38HfDdyz6BoMh2y3UybkXUtRVfla5dc+TF921U7V3OzMwBQ/4LO/8Fnviz/wVV+Lf9k6V9p8N/CLw3dM/h7w8zbXmkTcv9pajs+Rrt1+5F8yWqHYm5mkkb8SKKKACiiigAr6u/Yr/bS+PX7An7QWj/tIfs6an/Z+t6X+6uLeXc9nqFm7L51jexp/rIJdv+8jBZUZWVWr5RooA/2Jv+CYP/BT74B/8FRP2f4vi78I5v7P1zTxFb+I/Ds8im80m8ZfuNj/AFkEu0tbXC/JKn911ZF/TKv8Vv8AYn/bW+Pv/BP/APaC0n9o39nbVDYaxpp8q6tpdxs9SsXZWmsb2Nf9ZBLt/wB6JtsqbWVa/wBX3/gmT/wU2+AH/BUD9n+3+MfwauPsWr2Ijt/EPh64dWvdHvWH+rkx/rIX2loJ1+SVP7rKyKAfpPRRRQAUUUUAFFFFABRRRQAUUUUAFFFFABRRRQAUUUUAFFFFABRRRQAUUUUAFFFFABX+APX+/wAV/gD0Af/V/v4ooooAKKKKACiiigAooooAKKKKACiiigAooooAKKKKACiiigAooooAKKKKACiiigAooooAKKKKACvl79tfQm8Vfsc/FbwtCNx1Twbr1oo9fO024T+tfUNc34q0S38TeG7/AMN3ePJ1C3ltXz/dljZP60Af4X+nt5mm2z/3ooz/AOO1crY8QeH7nwn4g1DwrdqUm0m6uLJwezW0jRN/6DWPQAUUUUAFFFFABRRRQAUUUUAFFFFABRRRQAUUUUAFFFFABRRRQAUUUUAFFFFABRRRQAUUUUAFFFFABRRRQAUUUUAFFFFABRRRQAUUUUAFFFFABRRRQB/d1/wZb+H9ui/tEeKmH3rrwzZKf9yPUJW/9DWv3G/4OTtdh0P/AIIvfGdHODfQ6PZL7tNrFitfmf8A8Gb/AIAl0f8AYh+KPxJlXauu+OvsqH1Ww021X/0Kc19Of8HZfjD/AIRr/gkrd6IHwfEXjDw/YY9fJmkvD/6TUAf5ijYJzSUUUAFFFFABRRRQAUUUUAFFFFABRRRQAUUUUACs679hI8xVU47qjbl3f8C+aiiigAooooAKKKKACiiigAr66/Yg/bg/aA/4J8ftBaV+0Z+znqv2HVLH9xd2c25rHU7F23SWN7Gn+sgf/vqJtssW1lr5FooA/wBjn/gmh/wUp/Z//wCCnX7PFp8bfgxcCz1S08u28Q+H7iRTe6PfbdzQzD+KNsFoJ1+SVOR8wZV/R+v8Wr9hT9ur9oP/AIJ3ftCaZ+0V+ztqf2XULX9xf2ExZrHVbF23SWN7Gv3om/gb70TbZU2svzf6vv8AwTY/4KS/s/8A/BT39ni2+OXwRnNrfWjLa6/oNw6m90e/27mgm2/ejb70EyjZKnzL8ysqgH6MUUUUAFFFFABRRRQAUUUUAFFFFABRRRQAUUUUAFFFFABRRRQAUUUUAFFFFABX+APX+/xX+APQB//W/v4ooooAKKKKACiiigAooooAKKKKACiiigAooooAKKKKACiiigAooooAKKKKACiiigAooooAKKKKACopMY/3ealprfdoA/xk/wDgp98Lf+FK/wDBRv46/DFI/Lh0vxzrRgGP+Xe8umvIP/IU6V8K1/Rf/wAHTXwXl+FP/BXLxF4wjg8q08f6Bo+vxYHyvIkLadP/AOPWQb8a/nQoAKKKKACiiigAooooAKKKKACiiigAooooAKKKKACiiigAooooAKKKKACiiigAooooAKKKKACiiigAooooAKKKKACiiigAooooAKKKKACiiigAo27uKKiuJHhheWFdzqrFR6tQB/qh/wDBr18Lj8Ov+CO/gHV5U2S+L9S1vX291uNQlgjP/fqBK/Mz/g80+Jb6Z+zt8FPg+kn/ACHPFF/q7xg9Y9NsfIVv++r2v6ff+Cd/wSX9nD9hT4RfAww+RN4Y8I6RZXCn/n4S1ja4/wDIzPX8Kv8AweFfGJfF37ePw9+DNnP5kPg3wb9rmj/uXOsXkjN/5AtIvzoA/khooooAKKKKACiiigAooooAKKKKACiiigAooooAKKKKACiiigAooooAKKKKACiiigAr7R/YK/b1/aE/4JzftB6f+0N+zxqAhvIdtvqWmXBb7Dq1ju3SWd7Gn3lf7ySL80TbWT/a+LqKAP8AZN/4Jw/8FHv2e/8Agpn+z1afHL4E3RhuINtvrmh3DKb7R77bua3uFX7yt96GZfknT5k/iVf0Lr/F/wD2A/2+v2gP+CcP7RGn/tD/ALP98qXMIW31TS7gt9h1bT926Szu1T+H+JJF+aJtrJ/Erf6vv/BOj/gov+z1/wAFMP2e7P47/Ai8KSoVt9a0S4Zft2j323c1rcqv/fUMi/JKnzJ/EqgH6B0UUUAFFFFABRRRQAUUUUAFFFFABRRRQAUUUUAFFFFABRRRQAUUUUAFf4A9f7/Ff4A9AH//1/7+KKKKACiiigAooooAKKKKACiiigAooooAKKKKACiiigAooooAKKKKACiiigAooooAKKKKACiiigAooooA/hz/AODy39nl7rwZ8Fv2rNMtj/xLb3UPCeozKP4LyNb6y3fRra4/77r+DOv9cX/gvf8AsvTftX/8Eqvix4H0i1+16zoOnr4o0lB977VojLebV/2pYI5ov+B1/kbxyJIqywnKNyp/2aAH0UUUAFFFFABRRRQAUUUUAFFFFABRRRQAUUUUAFFFFABRRRQAUUUUAFFFFABRRRQAUUUUAFFFFABRRRQAUUUUAFFFFABRRRQAUUUUAFFFFABX2j/wTk/Z/f8Aan/b1+D/AOz95JltvEfivTYr0AZ/0G2m+03rf7v2aKSvi6v6xv8Ag0N/Zil+J37eXiz9pbUoC2nfC/w80FvLj5Rqmus0Ef8AwJbOG5/77WgD/SJX/VfJ/F0r/IO/4LkfHlP2jP8AgrD8bfH1nKJ7LT9ebw9ZMp+T7PoMMenfL/svJFK341/qyftefH3RP2Wf2X/iB+0Zr7Itt4K8P6hrOJOjPaW7PFH9Xk2J+Nf4pmqaxq/iHVLrxD4hkM+oahNJdXUhOS9xMzSyN/wNmNAFCiiigAooooAKKKKACiiigAooooAKKKKACiiigAooooAKKKKACiiigAooooAKKKKACiiigAr7b/4J/ft/ftBf8E4P2htP/aD+AN/skj22+r6VMzfYdX0/duks7pV/h/ihkX5rdvmT+JW+JKKAP9mH/gnl/wAFCv2e/wDgpN+z5Y/H34CXxK/Lb6tpE5X7dpF8F3SWt1Gv8X8SSL8kqYZK+96/xo/+CbP/AAUP+NP/AATP/ac0j9oH4Szyz2G+O38Q6Hv2waxpe795byL9zzE5a2k+9FLt/gZlb/YC+Cfxi8B/tAfCPwx8bvhfejUfDni3TbbVdOuR/wAtLa7jWWIsv8LbW+Zf4GBXtQB61RRRQAUUUUAFFFFABRRRQAUUUUAFFFFABRRRQAUUUUAFFFFABX+APX+/xX+APQB//9D+/iiiigAooooAKKKKACiiigAooooAKKKKACiiigAooooAKKKKACiiigAooooAKKKKACiiigAooooAKKKKAMnULCz1Wxm0zUY1nguEaKWNhuV43G1lYf7S1/jI/wDBRv8AZU1L9iT9uP4m/swXkTxWvhfXLgaaXG3zNLuf9J02T/gVtLF/wMGv9oSv4Jv+Dw39il9N8S/Dv9vvwlZ/ub6P/hD/ABFJGvAmTzLnS5m/3l+0Qbv9mJKAP4gKKKKACiiigAooooAKKKKACiiigAooooAKKKKACiiigAooooAKKKKACiiigAooooAKKKKACiiigAooooAKKKKACiiigAooooAKKKKACiiigAr/AFF/+DXf9kdv2bP+CX+ifEjXLUQa98W7+XxXcFk2yrYuq22mRt/s/ZYVmH/XY1/nH/sRfsteJv22P2tvh/8AsreFlcS+M9YhsriVF3fZrH/W3tw3+zDbRySf8BWv9oDwX4R8O/D7wZpXgbwhaJY6Tolnb2Flbxj5Ybe2jWKGNf8AcVQtAH8vH/B23+1avwe/4J96T+zfo9x5Wq/FvXIbeZFPLaTo+2+uz/utP9li/wCBmv8ANfr+hP8A4Oaf2xof2qv+Cn+v+DPDd19o8N/CW1XwlZ7PuG+RvP1OT/e+0t5G7/p3Wv57KACiiigAooooAKKKKACiiigAooooAKKKKACiiigAooooAKKKKACiiigAooooAKKKKACiiigAooooAK/05f8Ag05+Mms/Er/glTD4J1qczf8ACAeK9W0O1z/BZy+TqEK/7qNduv8AwGv8xqv9N3/g0x+D2t/Df/glavjjW4HhHj3xdq2s2e/+OzhWHTomX/ZZrR2oA/p7ooooAKKKKACiiigAooooAKKKKACiiigAooooAKKKKACiiigAr/AHr/f4r/AHoA//0f7+KKKKACiiigAooooAKKKKACiiigAooooAKKKKACiiigAooooAKKKKACiiigAooooAKKKKACiiigAooooAK+IP+CiP7Hnhj9vH9jXx/wDss+JNkR8U6XJFYXLD/j11GHbPYXH/AGxuY42/3cr/ABV9v01l3DFAH+Gb4z8G+Kvhz4y1b4e+PLKTTdc0G9uNO1CzlG14Lq2kaKaNv9yRStc3X9b/APwdgf8ABOub4FftNab+3h8O7Ap4X+KbLZ655a/u7bxFbR/LI3937dbR7v8ArrDJ/er+SCgAooooAKKKKACiiigAooooAKKKKACiiigAooooAKKKKACiiigAooooAKKKKACiiigAooooAKKKKACiiigAooooAKKKKACiiigAoor2b9nb4B/Ef9qb47eEv2dfhFbfavEnjLVLfS7JCP3aNM3zTSf3YoYleR2/gRDQB/Zx/wAGf37BTPN40/4KKePLL5f3nhLwoZF6/MsmrXS/8CWK2Rv9mZK/r7/bk+OnjX9m79k7xv8AGP4Z+HdR8W+KtK02RdB0XS7SS9urzVbj9xYxrBCrsy+c6M/y/JEGZvu11f7Iv7NHw+/Y4/Zq8FfsxfCyLy9D8GaXDp0DEYed0+aa4k/6a3ErPM/+05r6SZc0Af5MPw+/4N+P+C0H7Qeo3Pi6++El9ps+pzSXV3e+Jr+x0x5Li5kaSSaSKWf7RuZmLP8Auu9fe/gT/g0G/wCClniOBbnxl4t8A+GwesbX2oXzj/wHsUT/AMfr/SmWNF6Cl2LQB/nw6P8A8GZf7R8ybvEPxy8NWz+lvot9Ov8A301zDW2//BmJ8b1jPk/HvQy+35QfD90q7v8AwOr/AEBaKAP863xJ/wAGbP7aVnG7+D/i74K1I/wi6tdSs8/8CRbmvjb4j/8ABqp/wV28D+Y/hjQvC3jBI/mX+yddjjc/7q38Vn/6FX+o3Tdi0Af41Hxs/wCCVP8AwUl/Z1hnvPjB8D/GGm2dv9+8g06TULVf+3nT/tMX/j1fAEivDePYXKmOeE7XiYbXRv8AaX7y1/upeSv0+lfIP7R37Af7Fv7W1jJZftH/AAv8OeMHlGPtOoafC14n/XO7RUuI/wDgEq0Af4tdFf6LX7W3/BoP+x18SIbnXP2RvF+s/DHVDl49Pvj/AG3pG7+FdsrJexr/ALX2h/8Adr+T79tr/ggh/wAFLv2GYLvxJ408Dv4x8J2e4t4g8ImTU7VI0/5aXFsipe26/wC1Jb7P9qgD8ZqKYrIy70IK/dyKfQAUUUUAFFFFABRRRQAUUUUAFFFFABRRRQAUUUUAFFFFABRRX3N/wT4/4J7/ALQn/BSb9oOy+AXwBsf7txrGsXCt9h0ex3bWurhk/FYYF+aVvlT+JlANb/gm1/wTv+Nn/BTD9pjTP2fvhFbyW9jmO61/XDHm20fS922S6kb7nmPyttF96WX/AGFZl/1/fgV8F/h7+zp8HfDHwL+FFmNP8N+EtNttK0636slvbIsS7mA+Zm27nb+JiWr5m/4J5f8ABPX9nv8A4Js/s+WPwC+AlgVX5bjVtWnC/b9Wvtu2S6unX+L+FI1+SJMIlffFABRRRQAUUUUAFFFFABRRRQAUUUUAFFFFABRRRQAUUUUAFFFFABX+APX+/wAV/gD0Af/S/v4ooooAKKKKACiiigAooooAKKKKACiiigAooooAKKKKACiiigAooooAKKKKACiiigAooooAKKKKACiiigAooooA+Mv2+P2Nfh5+3x+yZ4x/ZY+JQEdn4msylreBFL2N9CfNsruP/at51R/9pcr/ABV/jmfHj4HfEv8AZo+M3if4A/GOxOmeJ/B+oTaXqFv/AArNC3+sjb+KKVdskLfxROrfxV/uAV/GB/wdVf8ABKG5+Lfw9X/gpD8D9NabxH4Os1tvGNtbrl7vRYf9Tf7F+9Jp24rN/etW3f8ALEUAf581FFFABRRRQAUUUUAFFFFABRRRQAUUUUAFFFFABRRRQAUUUUAFFFFABRRRQAUUUUAFFFFABRRRQAUUUUAFFFFABRRRQAUUUUAFf3sf8Gln/BMuTwr4Y1H/AIKY/Fqw2XmvRTaN4IilTmOw3bL7UV/6+GX7NC3/ADySRvuyV/LH/wAEjv8Agm74y/4KeftiaN8C7BZ7Xwlp+3VPFupx/L9j0lG+aNW/hubtv3Ft/tFm+5G1f683gLwL4T+F/gnSPhx4B0+DSdD0Gzh07T7K3G2G2tbaNYoYY1/uoiqooA7aiiigAooooAKKKKACiiigAooooAKYY1NPooA/Dn/goZ/wQC/4J9/8FBIr3xVq/h1fAXju63OPE/hmOO1uZJexvbbb9nvV/veanm/3JFr+BP8A4KWf8EI/23/+CbE954x8UaYPG/w3gPyeLdCikeCGMN8v9o2nzy2Dfd+Zt1v/AHJ6/wBbKsq+0+z1K1lsb2JJYZUZHjcblZX4ZWXoVagD/C7VsrS1/ogf8Fcf+DW34VfHaDVPjz/wTths/A3jQ77i68JsRBoOpyfeb7J/Dp07/wCx/orN95I/mkr/AD/vip8KfiX8DfiJq3wl+MehXvhrxPoM32e/0zUYmguLeT/aVv4X+8jLuRk+ZGZKAOAooooAKKKKACiiigAooooAKKKKACiiigAoopr7vLPkjL7flB+7uoA+2/2Av2Af2hP+Cj/7Qdh+z1+z3YB55Ntxq2q3Ct9h0ix3bWvLtk/h/hSJPmlb5E/iZf8AV8/4J1/8E6P2fP8Agmf+zzZfAb4E2hlZmW51nWblV+3avf7drXVyy/8AfMMS/JEmFT+Jm+Zv+CEfwO/Y1+Ev/BN34f8Aij9jW3M2k+NNOg1bWNXu1X+0r/VdvlXQvSv3ZLeZXgSFfkhVNif3m/ZygAooooAKKKKACiiigAooooAKKKKACiiigAooooAKKKKACiiigAooooAK/wAAev8Af4r/AAB6AP/T/v4ooooAKKKKACiiigAooooAKKKKACiiigAooooAKKKKACiiigAooooAKKKKACiiigAooooAKKKKACiiigAooooAKxNU0vTdY0640nVLeO6tLpDFNDKivHJG67WVlb5WVl+XbituigD/AClf+C+f/BIjVP8AgmZ+0qfF3wwsZH+Dvj64muPD0y7iul3X+sm0eRv+mP3rVm+/b/L8zQyV+CNf7Vv7Y37I3wY/bl/Z48R/s0fH3TRqOgeIrfZvTC3FncR8wXdpJ/yznt5NrI3T+FtyMy1/kbf8FD/2Avjf/wAE2v2ltW/Zz+NluZPJ3XWjatHG0drq+mu22G7tv/QZovvRSgp/dZgD4booooAKKKKACiiigAooooAKKKKACiiigAooooAKKKKACiiigAooooAKKKKACiiigAooooAKKKKACiiigAooooAK7f4afDTx58ZPiHonwl+F2kz674k8R3sOnabp9sN0tzdTNsjjX/4r7iICzfIrVxH+7z9Bmv8ASE/4Nuf+CJdz+xv4Ltv23f2ptJ8n4qeKLNl0bTLlfn8PaZcL825f4dQu1/138UUWIvvtNQB+sv8AwR1/4Jg+B/8Agl1+yTYfCa3MOoeNNdMWp+LtXiXH2vUvL2+TG33vston7q2X/ek+9I1frfRRQAUUUUAFFFFABRRRQAUUUUAFFFFABRRRQAUUUUAFfj//AMFW/wDgjp+zV/wVP+Gn9n+O7dfDnj/SoWTQfFtnEpurX+Jbe5X5PtVm7ffgdvl5aJo3+av2AooA/wAV79tn9h/9on/gnz8d9Q/Z7/aS0Y6Zq1qvnWd1Fuex1Oz3bI7uym2p5kDf99RN8kqqy7a+SK/2Sv8Ago//AME3v2eP+CmX7Pt38EPjnZ+TcwbrjQ9dt0U3+j323atxbM33kb7s0DfJOnyt/Cy/5Ov7dP7Dnx6/4J5ftE6t+zb+0Hp4ttT0/wDf2V7CrGz1OxdmWC+spH+9E+37v3omBif5loA+P6KKKACiiigAooooAKKKKACiiigAooooA/tR/wCDRT/goPJ4P+JHib/gnN8QbzbYeJvO8SeE/MPypfwxr/aNov8A18QKtyi/3oZf71f6AqnIr/ED+Avxs8d/s3fGvwp+0B8Lp/I8QeC9VtdXsG/hM1tJu8tv9mZcxP8A7Dmv9n/9l39oLwJ+1Z+zx4M/aP8AhtMJtD8aaRa6ra85aNbiPc0Lf7cTZjf/AGkNAHv9FFFABRRRQAUUUUAFFFFABRRRQAUUUUAFFFFABRRRQAUUUUAFFFFABX+APX+/xX+APQB//9T+/iiiigAooooAKKKKACiiigAooooAKKKKACiiigAooooAKKKKACiiigAooooAKKKKACiiigAooooAKKKKACiiigAooooAK/MP/gqX/wAExvgp/wAFSP2cLn4L/EwDTdf00veeGfEMcYe50i/K7dy9PMglwqXMG7bKn911jZf08ooA/wATb9rX9kz46/sRfHnWv2c/2idHOj+I9EfnB3211bvu8i8tJP8AltbSqu5G+qPtZWVfnCv9fH/gq9/wSY+AX/BU/wCCR8FePY10Txno0cr+GfFEMW+506d/vRyL8vnWcpVfOgZvm+8m2RVYf5W37Y/7GP7Qn7Bfx21T9nv9pPRG0fXNP/eQSpuezv7PdtjvLKb/AJbQP/e+8jZRlVlZaAPleiiigAooooAKKKKACiiigAooooAKKKKACiiigAooooAKKKKACiiigAooooAKKKKACiiigAooooAKjZkjUu5AC8sT90U8nbX9x/8AwQB/4N1LvULrQ/25P+CgugmK3hMd/wCFfBOoRfM7fegv9Xhb+FeGtrJvaSf+GKgDQ/4Nxv8Aggddrc6F/wAFEP23dEMXl+Xf+B/C99Fhs/eh1i/gb7vZrOBv+u7f8stv93CrtGKFXbTqACiiigAooooAKKKKACiiigAooooAKKKKACiiigAooooAKKKKACvyZ/4K6/8ABLD4V/8ABUz9mq5+GHiMw6T400US3fhTxAybnsL51/1cm352s7jaqXMX93DL88a1+s1FAH+Hx8bvgr8Uf2cfi54h+Bfxp0iXQvFXhe9ksNSspuscyfxK3/LSJ1KyQyL8jIVZPvV5dX+kV/wc5f8ABIeP9rD4Kyftv/ATSg/xJ+Hlkx1e2tY/3utaDCC8i7U/1lzY8yQ/xNF5sXzfutv+bkrJIodCCG5UjvQA+iiigAooooAKKKKACiiigAooooAK/wBBv/gz9/bUl8dfAXxx+wr4uu91/wCAbz+39CRzknSdUk23Ea/7Nvfbm/7eVr/Pkr9X/wDgiJ+1y37F3/BTf4XfFbUrn7NoOragvhnXCTtj/s/Wtts0kn+zDOYZ/wDtlQB/r80UxG3LT6ACiiigAooooAKKKKACiiigAooooAKKKKACiiigAooooAKKKKACv8Aev9/iv8AegD//1f7+KKKKACiiigAooooAKKKKACiiigAooooAKKKKACiiigAooooAKKKKACiiigAooooAKKKKACiiigAooooAKKKKACiiigAooooAK/Pb/goh/wAE3f2bP+CmHwRm+DH7QWmZltjJNo+tWqqmpaTcuuPOtJmXgNwJom3RSr8rr91l/QmigD/Hf/4Kcf8ABJ39qH/glr8U/wDhD/jTZf2n4V1Sdk0DxXZRt/Z2pL/DG3/Ptdov37aVt38UTSJ81fmPX+3p8a/gX8If2jvhnqvwb+Ovhyw8VeGNch8i+07UIllglX+H3Vkb5kkTayN8yMrCv89P/grl/wAGw3xt/Zal1P47fsIQ33xD+Hke64utAAafX9Hj+83lqnzajbJ/eT/SkX7yyfNLQB/JvRQ3ysyPwVLKQezJ95aKACiiigAooooAKKKKACiiigAooooAKKKKACiiigAooooAKKKKACiiigAooooAK6TwX4L8YfEbxdpvgD4e6Vda5rmsXEdnYafYQtc3VzcP92OCBPmZn/2K+2P2Af8Agmf+1v8A8FJ/iV/wgH7NPh5p7CzlWPVfEF7ug0fSlf8Aiubja+6Tb9yCLdcP/d2fNX+lf/wSk/4Ihfss/wDBLbwyniDw1APF3xOvLfytS8XahEqz7H/1lvYQfOtlbf7Ks0sv/LWVvl2gH5Rf8EQf+DbDw5+zHLpH7WH7e9lba78R4jHd6N4ZJW50/QJPvLNct8yXeoJ/B96C3b7nmPtlX+whV20Ku2nUAFFFFABRRRQAUUUUAFFFFABRRRQAUUUUAFFFFABRRRQAUUUUAFFFFABRRRQBFIiyIUav8q//AIOJv+CYUX/BPT9s+Txn8MdP+y/C/wCKRuNW0NYk/dWF9u3X+m/7Kws6zwr/AM8pNv8Ayzav9VWvys/4LEf8E/8ASP8AgpD+wp4s+A8UMa+KLVP7Y8LXMn/LDWrJWa3G7+FLhWe2l/2JT/doA/x+qKsX2n3+kX0+laxBJa3drLJBcW8o2vDNC2ySNl/hZGUq/wBKr0AFFFFABRRRQAUUUUAFFFFABR8//LFzG/8ACw6hv7y0UUAf6/3/AATI/wCCgHwr/af/AGBPhT8bPGnivSbPX9V8PWserwXV9bxTrqVmv2S93RvIrLunidvm/hK196f8ND/Af/odNB/8Gdn/APHa/wAQB9PsJm3zQRO3q0asab/Zel/8+kP/AH6X/wCJoA/3Af8Ahof4D/8AQ6aD/wCDOz/+O0f8ND/Af/odNB/8Gdn/APHa/wAP7+y9L/59If8Av0v/AMTR/Zel/wDPpD/36X/4mgD/AHQPDvi/wx4usv7R8Lahbalb/wDPW0mjmT/vqJmrpVbNf4dfwt+LnxW+BniWDxn8E/E+q+D9WtW3xXmiXk2nyo3+9bsm7/gVf2pf8EZP+DoPxlq3jbRv2Yf+CmN/BdW2pyx2Wk+PfLjtnhuH+SOHWI4lSLynbC/bYkXY3/Hwu1mlQA/vEoqON0kQMnIqSgAooooAKKKKACiiigAooooAKKKKACiiigAr/AHr/f4r/AHoA//W/v4ooooAKKKKACiiigAooooAKKKKACiiigAooooAKKKKACiiigAooooAKKKKACiiigAooooAKKKKACiiigAooooAKKKKACiiigAooooAKay5p1FAH883/BUr/g3c/Y+/4KHnUPin4OjT4Y/FK4DO2vaVbqbXUJe39p2Ksi3Df9No2iuP9tvu1/ns/t+f8Epv21/+CbHiZ9N/aS8KyJoEkvlWXijTN11od5/d23G1PJkf/nhcpFL/ALLfer/Y/rk/FXhHwz468PXfhLxnptrq2lahEYbqyvYY57aeNvvRyRSqyOv+yy0Af4adFf6Pf/BQP/g05/ZL+Pkl54//AGKdTPwh8Szbpf7KMbXnhyeT+79m3efZf9sHaJf+eFfxX/ts/wDBIT/goJ/wT9ubm9/aE+H15/wjkLbU8SaNu1PRXX+FmuYF3W2/+7cpE1AH5qUUxZEkjEyEFG+6QcqafQAUUUUAFFFFABRRRQAUUUUAFFFFABRRRQAUUUUAFFel/CH4KfF/9oDxrB8NvgV4X1Xxj4gnOE0/RrSW8uP95liV/LX/AGm2p/tV/Vz+wV/waOftI/FWWx8cft5eI4vhtobbZDoOjtDqGuTL/dkuPnsrT5f7v2pv9laAP5K/h78O/H/xb8aaf8N/hXoV94k8Q6s/lWWmaXbSXV1O3/TOCJXZv977ifxV/Zh/wTF/4NMfGXiqXT/i5/wUzv20LTflni8D6PcqbyZfvbdRv4vkgX+/Basz/wDTeP7tf2FfsVf8E4f2NP8Agnx4Pbwn+y54IsvD8k6LHe6mwNzql9s73V9Lunk9dm7yk/gVa+7FXbQB5H8Gvgh8J/2efh5pnwl+B/h3T/CvhnR4xFZ6bpsC28Ea/wC6n3mb+Nm+Z2+ZiTXr1FFABRRRQAUUUUAFFFFABRRRQAUUUUAFFFFABRRRQAUUUUAFFFFABRRRQAUUUUAFFFFABTWXcMU6igD/AC2f+DnT9hpf2Sv+CjV98VPCdn9m8KfGO3bxJa+WuIo9URli1aFf9+Qpc/8Abev5za/1C/8Ag6O/ZEg/aP8A+CYur/FXRbUS6/8ACC9j8T2zBcyHT/8Aj21ONf8AZ+zSef8A9sFr/L0oAKKKKACiiigAooooAKKKKACiiigAooooAKKKKACmFUKlHUFT8pB+6afRQB/qLf8ABsN+3d4g/bD/AOCeMPw9+I981/4r+EN6vhm4uJGLy3Gm+SsumTSN/E3kZg3fxeRu/ir+kKv4Ev8Agy+1zUYfid+0B4bRz9lm0vw3dFP+miT6hFu/75Nf320AFFFFABRRRQAUUUUAFFFFABRRRQAUUUUAFf4A9f7/ABX+APQB/9f+/iiiigAooooAKKKKACiiigAooooAKKKKACiiigAooooAKKKKACiiigAooooAKKKKACiiigAooooAKKKKACiiigAooooAKKKKACiiigAooooAKKKKACqNzZ2t7A9tcoskbrsdGG5SvoVq9RQB+GX7ZX/BvD/wS9/bInuvEOr+BB4F8SXWWOs+DmXSp2fH3pLZVaymb/akt93+1X8vv7U//Bnt+1j4BNxrf7IvxA0X4gWC/NHp2txtouo/7qyJ51pI3+0zQV/on0UAf4yP7R3/AATH/wCCg/7JLzv+0D8H/E2g2dudp1BLFr7Tv/A2y+02/wD49XwlHNDMxWFw5XqAdxFf7q3kpXxH8ev+Cbf7A37Tiyv8d/g/4S8S3Exy91c6Vbref+BcSJOv/fdAH+MRRX+od8V/+DVL/gkZ8R5pLnwp4f8AEXgd3+7/AGFrdwUX/djv/tiV+dvj7/gzG+BOoSyP8Lvjn4k0lP4I9V0qx1HH1aBrNqAP4A6K/tB8Vf8ABmP+0DayH/hCfjr4evU/h+36JeWx/wDIVzNXkd7/AMGcP7f8RP8AZ3xN+H04/wCmh1aL/wBs3oA/kaor+tWH/gzn/wCChzSBJfiR8O0T1WbVj/479hrutD/4M1v2xbhx/wAJJ8Y/Blovf7NY6lcMP++vJoA/jwor+6rwT/wZdQYEnxI/aEl949K8OLH/AORJ75//AECvuf4Yf8GgH/BOLwtHHN8S/FfjnxdOvVWv7XToH/4DaWqS/wDkWgD/ADbm+Vdz/KvrXpHwp+DPxg+O2uJ4Y+CHhPWfGeoSHatvodhcX77v+3eJ9v8AwKv9Y34Kf8EF/wDgkb8BriDUPCPwO0DUby3+7c6+s2uSlv73/EykuEH/AAFa/VLwh4E8GfD3RY/DHgLSbPRNNg/1Vpp9vHawJ/uxxKiUAf5eH7Mn/BsJ/wAFXP2hHttT8Z+GNO+Fuj3HJufFV4q3IX/ZsLL7Tcbv9mXyq/pV/ZH/AODQ/wDYs+Fctr4h/au8U6z8VdRj2u+nwH+xdI3fxK0VuzXci/710v8Au1/XSEUdBTqAPA/gN+zR+z/+zB4KT4efs7eDNH8F6NEF/wBE0e0htI3ZB96Ty13SN/tSbmr3oKF6U6igAooooAKKKKACiiigAooooAKKKKACiiigAooooAKKKKACiiigAooooAKKKKACiiigAooooAKKKKACiiigDgPib8P/AA58WPhzr3wt8Xw/aNI8Sadc6VexH+O3vIWgkX/vhzX+Jj8aPhP4h+Avxi8W/ArxaCmp+C9ZvtDugevmWFxJas3/AAPy9341/uFOu5MV/lJf8HLXwKh+CH/BX34h3emweRY+ObXS/FMA/hMl5b+Rct/4E20jfjQB+C9FFFABRRRQAUUUUAFFFFABRRRQAUUUUAFFFFABRRRQB/ap/wAGYf8AyWv49f8AYD8O/wDpVfV/oCV/n9/8GYf/ACWv49f9gPw7/wClV9X+gJQAUUUUAFFFFABRRRQAUUUUAFFFFABRRRQAV/gD1/v8V/gD0Af/0P7+KKKKACiiigAooooAKKKKACiiigAooooAKKKKACiiigAooooAKKKKACiiigAooooAKKKKACiiigAooooAKKKKACiiigAooooAKKKKACiiigAooooAKKKKACiiigAooooAKKKKACiiigBuxadRRQAUUUUAFFFFABRRRQAUUUUAFFFFABRRRQAUUUUAFFFFABRRRQAUUUUAFFFFABRRRQAUUUUAFFFFABRRRQAUUUUAFFFFABRRRQAUUUUAFf59v/B5r8LDpfx9+CHxsWPH9taBrGhySY6nTbmG5jX/AL5vHr/QSr+NP/g8v8F/2h+yf8HPiFs3HSfGN1ZZ/urf6bM3/oVstAH+enRRRQAUUUUAFFFFABRRRQAUUUUAFFFFABRRRQAUUUUAf2qf8GYf/Ja/j1/2A/Dv/pVfV/oCV/n9/wDBmH/yWv49f9gPw7/6VX1f6AlABRRRQAUUUUAFFFFABRRRQAUUUUAFFFFABX+APX+/xX+APQB//9H+/iiiigAooooAKKKKACiiigAooooAKKKKACiiigAooooAKKKKACiiigAooprNtoAdRXzh+0Z+1n+zV+yP4Mfx9+0t450bwTpQDMkuq3ccDS7f4YIv9bM3+zEjNX8xf7Vf/B3/APsdfDiS40D9lHwVrnxMvo9yJqF6f7C0pm/hZGlSW9kX/t2T/eoA/sAyq0zzU27k5+lf5fHx9/4Orf8Agqz8XZp7f4cah4e+GdhIu0R6Hpi3VyF/6+9Sa5+b/aSFK/I/4rf8FKv+Ch3xwL/8LX+N/jbV45OsB1q8toP+/Fq0MS/98UAf7MOqeIdF0WJZtXvILRD3nkWL/wBCrjP+FzfCX/oZ9I/8D7f/AOOV/iEaxreveIrg3PiG/udQkbq91NJOx/4FKz1i/YbD/nhH/wB8rQB/uI/8Lm+Ev/Qz6R/4H2//AMco/wCFzfCX/oZ9I/8AA+3/APjlf4dn2Kw/594v++Vo+xWH/PvF/wB8rQB/uJ/8Lm+Ev/Qz6R/4H2//AMco/wCFzfCX/oZ9I/8AA+3/APjlf4dn2Kw/594v++Vo+xWH/PvF/wB8rQB/uJ/8Lm+Ev/Qz6R/4H2//AMcrqPD3inwz4qtWuvDGoW2owxtsaS2mjmVW/usyM3zV/hifYrD/AJ94v++Vr+kT/g2g/wCClMX7Dv7aUPwK+Il8LP4c/F+W30q8LlVgsNazs028/uKsrN9kmb+68bN/q6AP9R6imqdwzTqACiiigAooooAKKKKACiiigAooooAKryyxRIXkOFXkk9q53xh4r8P+A/Cep+N/GF3HYaTo1pNf3tzKcRw29tG0k0jf7KIpb8K/yd/+Csf/AAWx/ab/AOCl/wAV9WtNM13UfDHwkt7iRND8LWU8ltFNao37q61Lym/0i5lX5nWXdFFnYi/KzMAf6sR+MvwlDFG8T6SCvBH223/+OUv/AAub4S/9DPpH/gfb/wDxyv8ADu+w2H/PCP8A75Wm/YrD/n3i/wC+VoA/3E/+FzfCX/oZ9I/8D7f/AOOUf8Lm+Ev/AEM+kf8Agfb/APxyv8Oz7FYf8+8X/fK0fYrD/n3i/wC+VoA/3E/+FzfCX/oZ9I/8D7f/AOOUf8Lm+Ev/AEM+kf8Agfb/APxyv8Oz7FYf8+8X/fK0fYrD/n3i/wC+VoA/3E/+FzfCX/oZ9I/8D7f/AOOUf8Lm+Ev/AEM+kf8Agfb/APxyv8Oz7FYf8+8X/fK0fYrD/n3i/wC+VoA/3OfD3izwx4pt2uPC+oW2oxRnazW00cyqfRmRmrqa/wAPv4JfHX4zfs2eOLX4l/s/eKtT8Ga7YurxXuj3Elq/+6yp8ki/34pEZG/iWv8AUE/4IDf8FeNQ/wCCov7Oep6X8XY4LX4p/D2S3tdf+yqsMGoW9yrfZNShh/5Z+d5brNEvyJKh2fI6LQB/QBRRRQAUUUUAFFFFABRRRQAUUUUAFFFFADWbbXmX/C5fhKCV/wCEn0nj/p+t/wD45X4W/wDBxz/wUvb9gf8AYgu/AHw3v/snxJ+Kwn0TRTE372ys9v8AxMdSX+75MTrFC3/PxNH/AHWr/K8XT7BVCfZ49q/7K0Af7iv/AAub4S/9DPpH/gfb/wDxyj/hc3wl/wChn0j/AMD7f/45X+HZ9isP+feL/vlaPsVh/wA+8X/fK0Af7if/AAub4S/9DPpH/gfb/wDxyj/hc3wl/wChn0j/AMD7f/45X+HZ9isP+feL/vlaPsVh/wA+8X/fK0Af7if/AAub4S/9DPpH/gfb/wDxytfS/iN4A1tvK0fW9Pu3zjEN1C5/8dav8NX7FYf8+8X/AHytT28aWcnm2YELL3j/AHbf+OUAf7qvmr7/AJU9ZEboa/xGfh7+01+0t8JbpLz4V/EXxT4bkj5U6ZrWoWuP+AxTolfph8Ff+Dg//gr/APA90j0v4yX/AIltV623ie1tdYR1/utLLF9o/wC+JaAP9bmiv4Df2aP+DyP4labJBpH7X3wistWg+VZdT8IXbWk4X+JvsF/5sTf7q3aV/TV+xr/wXZ/4Jlftu3Vr4f8Ahh8R7bQ/El1wmgeJl/sfUC392Jbj91cN/wBe8stAH7EUUxXU9KfQAUUUUAFFFFABRRRQAUUUUAFfyo/8Hf2mRXP/AAS+8N3/ABus/iJo7L/wOx1CP/2av6rq/lW/4O+76C3/AOCXfh+zbG+6+IWjqvP9yz1Bv/ZaAP8ANQooooAKKKKACiiigAooooAKKKKACiiigAooooAKKKKAP7VP+DMP/ktfx6/7Afh3/wBKr6v9ASv8/v8A4Mw/+S1/Hr/sB+Hf/Sq+r/QEoAKKKKACiiigAooooAKKKKACiiigAooooAK/wB6/3+K/wB6AP//S/v4ooooAKKKKACiiigAooooAKKKKACiiigAooooAKKKKACiiigAoprNtr+aP/gsT/wAHFPwK/wCCeR1L4E/ASO1+IHxjQNHNZh92maFJt+U6nJE25pvS0ibzf+erQrt3AH7eftUftjfs1fsUfDCb4wftPeLrDwjocWUjku5P3tzKP+WNpbpuluJv+mcSM3tX8Mv/AAUS/wCDtn45/E6e9+HX/BPDRP8AhAtBO6L/AISfWoo7nWp1+7utrRt9pZf70vny/wDXJq/lw/al/a4/aN/bW+LF18bP2nvFd54r8QXG5UkuDtgtYXbd9nsrZP3VtB/0yiRf9rc3zV85UAegfFL4s/FX45eN7r4lfGnxJqXizxFdnM2paxdS3l0/+z5krO6r/srtX/Zrz+iigAooooAKKKKACiiigAooooAKPoSvuDtNFFAH+rV/wb2/8FKv+HiP7DVhaePr8XPxI+HHk6D4m3n97c7I/wDQtR+l3Avzt/z3jlr97q/yA/8AgjF/wUV1T/gml+3L4d+MupTyDwTrW3Q/F1unKvpNzIu642/xS2Mm25T/AGFdP+Wlf67miazpXiLSrbX9FuI7qyvYo5reeFg8ckUqho3Rl4ZGUhlI9aAOgooooAKKKKACiiigAooooAKKKKAPyx/4LZazqOg/8El/2htT0qUwzL4H1aPcvXbND5bf+OsVr/H1ZdrFE6Zr/X5/4Lnf8oiP2hf+xJ1H/wBBWv8AILf/AFrfWgCKiiigAooooAKKKKACiiigAr+sz/gzx1a+tP8Agov8QNFicrbXnw7neVP4S1tqlj5Tf8A8x/zr+TOv6vP+DPf/AJSV+Nv+yc3v/p002gD/AEnKKKKACiiigAooooAKKKKACiiigArmPE/iXQfBvhq/8YeKbuLT9M0q3lvLu5mbZFBBCpkkkkb+FURSzfSunr+O3/g7D/4KVf8AClvgPY/8E+vhZfbPE3xLg+1+JHiYb7Xw8j7Vgb+62ozp5X/XvHL/AHqAP47f+Cun/BQjXf8AgpZ+294m/aDdpU8L25/sjwpZvu/0bRbZm8ltv8Ml2zPczf7Umz+Fa/MuiigAooooAKKKKACiiigAooooAKZJGkq7JlDr6Eblp9FAH7I/sD/8F3v+Cif/AAT+uLLQfBPi2Txl4Ltdqnwv4pkkvrNY/wC7aTO32qy/2PKl8r/pk1f3l/8ABM3/AIOHf2Iv+Chs9h8N9Tuj8NPiVdbY18Oa7NH5d3L/AHdNv/kiu/8Arm3lXH/TKv8AKjo/iV+6tuX/AHqAP91ZWzTq/wA1X/gkf/wc2fHX9kqXTPgX+23Pf/EX4bL5dvb6wxafX9Fj+6v7x23ajbJ/zylbz0X/AFUjbVir/RE+B/x0+EP7Sfww0n41fAjxDZeKPC+uQefZalYSedDIv8S/3kZG+V42CujAqyqwxQB7NRRRQAUUUUAFFFFABX8cn/B5R4xTT/2NvhL4D3c6t43kvNvqthpd0v8A6FOtf2N1/AZ/wed/E9L/AOKnwH+C0Lc6bpeua7Kn/X5Na2cR/wDIEtAH8TVFFFABRRRQAUUUUAFFFFABRRRQAUUUUAFFFFABRRRQB/ap/wAGYf8AyWv49f8AYD8O/wDpVfV/oCV/n9/8GYf/ACWv49f9gPw7/wClV9X+gJQAUUUUAFFFFABRRRQAUUUUAFFFFABRRRQAV/gD1/v8V/gD0Af/0/7+KKKKACiiigAooooAKKKKACiiigAooooAKKKKACiiigAprNtoZttfxM/8HJn/AAXYvfhedX/4J2fsa6yYfEc0TWvjbxDZSYfT45l+bSbSRfu3bof9JkX5rdD5SfvWbywDn/8AgvT/AMHHdz4KvNa/Ys/4J5a4o1mEyWHibxtZNu+xyfcksdJk+606crNdr8sXKRfvdzR/wa3E9zeXEl5eSNNNM7O8khZ3eR23MzM3zMzt8zs33qrKqRqEQBQvyqB2p9ABRRRQAUUUUAFFFFABRRRQAUUUUAFFFFABRRRQAV/o6/8ABqf/AMFKx+0N+zRdfsLfFHUPM8Y/Ci3V9FeZsyXvht22Qqv95tOkPkP/ANMng/2q/wA4qvrD9hv9r34ifsH/ALVXgz9qr4ZAy33hW9WW4sw21b7T5f3V7Yyf7NxASv8AsNsb+GgD/aoorxj4BfHD4c/tJfBjwx8evhHfjUvDXi3TYNU064H3nhuF3KGX+GReVdP4GBX+GvZ6ACiiigAooooAKKKKACiiigD8oP8Agud/yiI/aF/7EnUf/QVr/ILf/Wt9a/19P+C53/KIj9oX/sSdR/8AQVr/ACC3/wBa31oAiooooAKKKKACiiigAooooAK/q8/4M9/+Ulfjb/snN7/6dNNr+UOv6vP+DPf/AJSV+Nv+yc3v/p002gD/AEnKKKKACiiigAooooAKKKKACiims22gDwj9pT4//DT9lX4DeLP2ivjDdix8NeDtNm1K+f8AiMcK/LHGv8UkrbY41/idlWv8bj9sj9qr4lftvftO+Mf2pviy5/tnxffNdfZ9+5LO1T91aWcf/TK3gVI0+hb+Kv6wf+Dtf/gpV/wl/jXSf+Cavwovv+Jf4fe31zxm8TDbJfOu7TtPb/r3jb7TMv8AeeD/AJ51/FNQAUUUUAFFFFABRRRQAUUUUAFFFFABRRRQAUUUUAFfqv8A8Erf+CuH7R3/AASu+Lv/AAk3w5lbXPA+rTK3iLwncystpfx/daaBvn+zXyL9ydE+bG2VWT7v5UUUAf7S37F37bHwA/b6+Ael/tFfs46uNU0TUB5U0MoWO7sLpP8AXWd7Bu/czw5+ZfusuGRmRlavsKv8dj/glj/wVA+Nv/BLX9oy2+Lnw5L6r4Y1Ro7fxR4beXZbapZo38P8Ed3DuLW0/wDA3yN+6Zlr/Wb/AGXf2m/g3+2L8CfD37RXwC1ZdY8L+Jrdbi2lA2yRn7ktvNH/AMsp4ZAY5oz9xlNAH0ZRRRQAUUUUANY4U1/lgf8AB0L8bk+MP/BXTxZ4cs5/Os/h/ouj+G0IPyrMkLX1wv8A38vdv4V/qN+KvEmi+DfDV/4u8STra6fpdvLd3Mz/AHYoYUaSRj7Kimv8T/8Aad+N+qftMftH+Pf2iNZJNx438Q6lrhU/wx3lxJJGv/AIii/8BoA8NooooAKKKKACiiigAooooAKKKKACiiigAooooAKKKKAP7VP+DMP/AJLX8ev+wH4d/wDSq+r/AEBK/wA/v/gzD/5LX8ev+wH4d/8ASq+r/QEoAKKKKACiiigAooooAKKKKACiiigAooooAK/wB6/3+K/wB6AP/9T+/iiiigAooooAKKKKACiiigAooooAKKKKACiiigAoorxb9oD45/Dn9mn4KeJ/j78Xb8aZ4a8I6dPqmo3H8Sw267tqL/FI3Cov8TFV70Afil/wcEf8FdoP+Ca37NS+A/hTeRN8YfiFDNbaCg2udMtE+W41aSP/AKY52Wyt9+4K/eSOSv8ALJ1DUtS1jUJ9Y1ieW8vLuWSae4mZnlmmmbdJJJI3zMzsxZ2b7zGvrn9vn9tL4m/8FBP2rfFf7UnxSLRXGvXGywsS2Y9N02HctlYx/wCzFH9/+9KXb+KvjqgAooooAKKKKACiiigAooooAKKKKACiiigAooooAKKKKACiiigD+4X/AINIv+Clg0rWdX/4Jn/FfUNsF81xr3giSVuBN/rNT01f9/8A4+4V9rj/AGa/vRU5Ff4dHwn+KXjz4HfE/wAPfGb4V6g2leJPCuoW+qabeJ1huraTzY2/2l+Xa6/xISn8Vf7GP/BOj9trwH/wUL/Y/wDB37UfgLbb/wBu23l6lYq2W0/U7b91e2bf9cZgdm770RR/4qAPuiiiigAooooAKKKKACiiigD8+/8Agqj8HPEn7Qf/AATj+Nvwc8FxtPrGu+DNXt7GBBlprhbdpIoV/wBp2QJ+Nf41CyeYvnYI3c4PVa/3WWXNfxP/APBXD/g1fvfjh8Vdb/aS/wCCeWqaXoN/r9xJf6r4P1Ytb2DXcx3TTabdxK/2bzWJZ7aRPK3sWRo1+SgD+Amiv6AJP+DYP/gs7G5C/DXSnCn7w8SaTg/99T03/iGF/wCC0P8A0TXS/wDwpNJ/+P0AfgDRXvv7UH7MXxl/Y3+OGs/s5/tA6db6V4u0D7P9vtLa7hu0h+0wx3Ua+dAzxM3lOjbVb5M14FQAUUUUAFFftP8ABL/g3v8A+Cq/7RPwi8OfHT4ReBNM1Xwx4t0+31TS7s6/pkRmtbld8bNHLMjK2z+FvmSvV/8AiGC/4LQ/9Ez0v/wpNJ/+P0AfgDX9i3/Bm98H/FOsfta/Ff49x2zf2HoXhSHQHn6IbzUr6G5WP/aZILIs/wDvr/er5w/Zz/4NMf8Agpd8TvGNvY/H6fw78MvD6uv2q8a/j1i88vd832a0sv3TN/11uIkr+/j9gn9hL4E/8E6/2dtL/Zu/Z+spYdMs3a5vL25KvealfTbfOvLuRVQNK+0L8qqiIqoiqiqKAPtmiiigAooooAKKKKACiiigAr4A/wCCl/7c/gj/AIJ0fsaeL/2ofFqx3NxpNv8AZtF09zt/tDV7n5LK1XvteT5n2/diR2/hr79Y7Rmv8xf/AIOe/wDgpWf2w/2yB+zJ8NtQ8/4f/B2eayJhbdFfa+/7q/uP9pbT/j0h/wBsTsn3qAP5xPiR8RvG3xg+ImufFf4lahJq3iLxLf3Gqaleyn557q5kaSaT/gbMfl/gTan8NcZRRQAUUUUAFFFFABRRRQAUUUUAFFFFABRRRQAUUUUAFFFFABX9C/8Awb6f8FftR/4JwftFJ8Jvi7qTr8GviFdwxayJTlNH1B9sUGrRr/Cn3Yr3b9+LbL96Fd389FDLlfn5+tAH+6LZ3tpqFrHeWUiywyqro6HcrK33SrDgrWnX8jX/AAav/wDBUe6/aT+AFz+wl8Y9SNz41+F9nG+hz3D7pdQ8N7liij+b70unMVgf/pk8H91q/rloAKKKYzBV3UAfgV/wcmftdr+yl/wSz8a6Vo9z9m8Q/Ewp4M0za219uoq3291/3LFJv+BFa/yn/k/gXavpX9Sv/B15+2/D+0P+3fp/7Lvg+787w78GbRrW68tso+vaksct7/4DwLbwf7DebX8tVABRRRQAUUUUAFFFFABRRRQAUUUUAFFFFABRRRQAUUUUAf2w/wDBmBp95J8Wvj9qiIfs8ekeHYS3/TR7jUG2/wDfKmv796/lu/4NSP2LPEH7OP8AwT/v/j344tHstY+MupR6zbxSDa66LZx+RprMv/TbdNcp/sSpX9SNABRRRQAUUUUAFFFFABRRRQAUUUUAFFFFABX+APX+/wAV/gD0Af/V/v4ooooAKKKKACiiigAooooAKKKKACiiigAooooAK/hP/wCDvH/goZNFF4X/AOCbvw6vtqziHxP4w8puse5v7JsZP99le7df9iCv7dfiP498L/CzwBrfxN8a3Is9G8OWF1ql9O3SK1s4Wnmk/wCARqa/xcv2wf2mfF/7Zf7Ufjz9qTxwX+3eNdXuNSWJzu8i1dttpar/ALNtbLFF/wAAoA+b6KKKACiiigAooooAKKKKACiiigAooooAKKKKACiiigAooooAKKKKACv6kP8Ag1w/4KWf8Mnftby/sjfE6+8nwL8YbiGC0aVtsVl4kRdlpJ/srfL/AKM//TVYK/lvqa3uLmzuIrzT5pIJ4XV4pYjsdJEbcrK38LI21kb+8tAH+6gp3DNOr8Wv+CGH/BSOy/4KT/sMaH478UXUb+P/AAjt0HxfCPlZr6GNfKvdv9y+h2zj+EOZEH+rr9paACiiigAooooAKKKKACiiigBuxajlC4x/e+Wpq8V/aM+KNr8D/wBn/wAcfGa8KpD4R8P6lrLlum2wtZJ//ZKAP8gP/gqT8X0+Pv8AwUf+OPxZtpTNban4z1aO1YnObWzmawtv/IUCV8G0+bULzVpn1XUiXuLxmuJiepkmbdJ/48xplABRu2/NRRQB/qi/8Gwfxi/4Wv8A8EfPAGkzNvufBV/q/hqU/wCzaXkk0I/78TxV/QjsWv4lf+DMz4w/2j8I/jd+z9eT/wDIH1rS/ENrET/BqNq9nMy/8Csk/Ov7bKAG7Fp1FFABRRRQAUUUUAFFFFABRRWXqN9aaXZyX1/IsMUKM7yOdqIq8szN/CtAH4q/8F6/+ClMX/BN/wDYX1XxH4OvEh+IvjcyaB4TXPzxXMsf+kX+3+7YwEyf9dTEn8Vf5NEkks0hmuWaSSRmLtIdzuz/AHmZv4mf+9X7Cf8ABcb/AIKPXv8AwUp/bp1v4g+Gbt5Ph/4R8zw/4Qi/gexhk/fX23+9fTqZP+uSxJ/DX48UAFFFFABRRRQAUUUUAFFFFABRRRQAUUUUAFFFFABRRRQAUUUUAFFFFAH1X+xB+1v4+/YU/ar8E/tVfDgu9/4Rv1mmtAdq3ti/7q9s2/2biBnX/e2t/DX+y38HPip4I+N/wq8O/GX4aXi6h4f8Vadbarptyv8Ay1tbuNZYm9m2n5l7NkV/h81/oz/8Gjf7bEnxd/ZA8SfsbeK7rzdY+E98txpayN8zaHqrPLGqf7NtdrNH/sq0dAH9eNfBX/BSn9trwf8A8E9f2MvGv7UPiny5J9DtPJ0izc7ftuq3P7qwtV/35yu/+7EHb+GvvNjtGa/zLf8Ag58/4Kep+2D+1VD+yf8ACm/E/wAPvhFcTQ3EkLhoNQ8Rf6q6m4+9HYrm2h/2/Pb+JaAP5n/GPjLxV8RvGGrfELxzeyalrevXtxqGoXkpy891cyNJNI3+/IxauboooAKKKKACiiigAooooAKKKKACiimSSJDGZX5CqxYCgB9Ff6o3/BND/giN+wr4E/YM+Feh/tE/Bzwj4p8dzeH7W/13UdY0i3urx76+X7XJHJLKm5vs/m+Qn91UFfdX/Dnf/gld/wBG8/D7/wAEFn/8boA/xz6K/wBjD/hzv/wSu/6N5+H3/ggs/wD43R/w53/4JXf9G8/D7/wQWf8A8boA/wAdWxt7nVNQh0fSomuby4ZUit4AzyyN/dWNPmZv9la/rX/4Iyf8G0Pxl/aH8Z6R+0J/wUD0G58HfDWxeO7tvDN8rQatr2z5ljuYPvWVi38fmbbiVPkRVRvMr+9z4PfsXfsjfs83Q1H4D/C/wp4PulXb9o0bR7Ozm/7+QxI//j1fTgVU6UAY2l6Vpuiadb6RpNvHa2lrGkMMEKLHFFGg2pGiqAqqi4VVXgVuUUUAFFFFABRRRQAUUUUAFFFFABRRRQAUUUUAFf4A9f7/ABX+APQB/9b+/iiiigAooooAKKKKACiiigAooooAKKKKACiiigD+bP8A4OmP2qH/AGfv+CXWsfDfRLgQ6v8AFjVLXwvEFbbJ9h+a71Fl/wBnyIPIf/rtX+Xo2Cc1/YX/AMHi/wAfZvFf7W3wu/ZwsLjda+DfDdxrVxEOFF5rV15S7v8AaSCyH/fdfx50AFFFFABRRRQAUUUUAFFFFABRRRQAUUUUAFFFFABRRRQAUUUUAFFFFABRRRQB+0X/AAQi/wCCkMv/AATd/bp0fxT4tu2i+HXjfy9A8WRk/u4YJZP9G1Db/esZ23O3/Pu8y/xV/rT2lxb31ql1bMskUihkZDuUr/CQa/wtmCMmx1BVuxr/AEyf+DXz/gpgf2vP2QW/ZX+KV/8AaPH/AMHoIbFHlbM1/wCH2+WwuPm+81tt+yTf7kTN/rKAP6j6KKKACiiigAooooAKKKKACvw8/wCDjH4w/wDCnf8Agj18YbuCcw3fiSxtfDdvg4JbV7yG1kX/AL8NJX7h1/HR/wAHj/xhfw3+x18LfgbA+2Txb4wk1KUdzb6PYyf+O+fdxUAf53x+8aKKKACiiigD+pP/AINHPjAPAX/BTjWfhdctiHx34M1C3jTPW6024t76P/yEtx+tf6Yafdr/AB5P+CLfxkf4D/8ABVn4D+P2m+zwSeK7XSLqQnaq2+sLJpkm7/wJX/vmv9hmL7lAElFFFABRRRQAUUUUAFFFFABX8rX/AAdJ/wDBS5v2UP2S4v2RPhbqBtvHfxhgmtrp4XxLZeHU/d3svy/da7b/AERP9gzN/wAs6/pT+MHxU8CfA/4Y+IPjN8Ub+PSvDvhbT59T1K7lO1YbW2QyyN/3yvC/xNha/wAdD/god+2v48/4KF/tfeMP2qvHnmQDXbnytKsXOf7P0m2+Wys1/wByL5n/AL0ru38VAHxQq7V9PpRRRQAUUUUAFFFFABRRRQAUUUUAFFFFABRRRQAUUUUAFFFFABRRRQAUUUUAFfuV/wAG5v7VE/7Lf/BV74efbrkwaJ8RDN4M1Ibtof8AtTb9iLf7t9Db/ma/DWtvwz4s1vwD4m03x54YkMOo6HeW+pWcifeS4s5Fnhb/AL6jWgD/AHKL61hv7KSzulIjmRkYAlThhz8y/dr/ABSP2wPgTqv7L/7VvxJ/Z11su8/gvxJqWlLI33pIYbhvIk/2vNgKSbvev9nL4HfE/Svjb8FfCXxl0EL9i8XaLY6zbgHK+Xf28c6/+h1/mf8A/B1H8Dh8J/8AgrPrHjaygEVp8RvDmk6+uwYUzwrJplx/wLdaIz/WgD+cGiiigAooooAKKKKACiiigAooooAK/Sn/AIJAfsjv+29/wUd+FvwDu7b7To0mqx6zrg/hGk6P/plwrf8AXXy0g/3pFr81q/ve/wCDPL9jB9D8A/EP9vbxTabZ9fn/AOES8PM45+x2bLPqMy/7Mtz5UO7/AKdzQB/brGu1f7tS0UUAFFFFABRRRQAUUUUAFFFFABRRRQAUUUUAFFFFABRRRQAUUUUAFf4A9f7/ABX+APQB/9f+/iiiigAooooAKKKKACiiigAooooAKKKKACmSNtQmn1HJ92gD/JP/AODhv4pt8Wv+CxXxn1JHzDoN7Y+HoB/CF03T7eJl/wC/7S/nX4t19k/8FGPFs3j3/goH8c/GUp3nUfH/AIklz/spqVxEv/jqrXxtQAUUUUAFFFFABRRRQAUUUUAFFFFABRRRQAUUUUAFFFFABRRRQAUUUUAFFFFABX3H/wAE4P24fHP/AATs/bE8IftT+CxJcQaPcfZtZsIj/wAhDR7nal7a/wC80X7yH+5KiN/DXw5RQB/uJfCn4neBvjR8NtB+LXw01CPVfD3iawt9T028iOUntbmNZIpF9trCvRq/h7/4NJv+Clg13wzq3/BM/wCK9/m80VJ9c8ENM/zPYu3mX+mr/wBe8jfaYV/55SS/wx1/cJQAUUUUAFFFFABRRRQA1vu1/nJ/8Hifxf8A+Ep/bk+G3wWs5/Mh8H+D2v5Y8/cuNYvpP/aVlF+df6Nbnama/wAkH/g4M+MI+NH/AAWD+NOsQNutvD+pWvhuD+6q6PZw20i/9/8AzqAPxoooooAKKKKANjw74o1LwP4h07xzo7lLzQ7q31C3cfeE1nIs8f8A49Gtf7f3ws8d6V8Ufht4f+JmgkGy8RabZ6nbkd47yFZ1/wDHXFf4dO1G+R+nev8AXV/4IJ/GSX44f8EjPgX4qu5/Pu9P8PLoNwc5YSaJNJp3zf8AAbdfzoA/YOiiigAooooAKKKKACiivj39un9r34c/sH/sq+Mv2o/ie4OneFrB5orbfte9vH/d2lnH/wBNLidkjH1Lfw0AfyXf8Hb3/BSr+ytH0n/gmf8ACi/K3Oprb6742aFulqjebp2mt/11Zftcy/3Eh/56V/B1Xrfx6+OHxI/aW+NXij9oH4u3f2/xL4w1K41TUJv4fOmb/Vx/3YoV2xwr/BEipXklABRRRQAUUUUAFFFFABRRRQAUUUUAFFFFABRRRQAUUUUAFFFFABRRRQAUUUUAFA+8KKKAP9az/g3l+KM3xX/4I7fBHVryXzrnSdKn0GbJ+7/ZF5cWUa/9+okr+d//AIPPvhfa2/iL4BfGmFP3lxFr2gztj+41neQfzmr9Rv8Ag0d8Rza5/wAEpJtKmbI0Xxxrtmg9FmW1vP8A0Kc14V/weN+EINR/YR+GfjXbufSfH0dsrf3VvNLvlb/x6JaAP86KiiigAooooAKKKKACiiigAooooA7n4X/DPxr8aPiV4e+D/wANLM6h4i8Vala6Tptsgz5l5eSLBAv+7ub5/wDYU1/s8fsXfsv+Dv2MP2VfAn7LngLB0/wTpFtp/mgbfPnRd1zcN/tXE5eVv9+v4S/+DSj/AIJ9P8Yf2jte/b18fWW7w/8ADQNpfh8uuEm128h/fSr8u1vsNm//AH1cr/dr/RZVdoxQA6iiigAooooAKKKKACiiigAooooAKKKKACiiigAooooAKKKKACiiigAr/AHr/f4r/AHoA//Q/v4ooooAKKKKACiiigAooooAKKKKACiiigAqCX7qfUVPUEn3fxX+dAH+I7+01cTXP7THxJvJsb5PFuvOcf3n1K4rxCvaP2kv+TjfiL/2Neuf+nKevF6ACiiigAooooAKKKKACiiigAooooAKKKKACiiigAooooAKKKKACiiigAooooAKKKKAPYP2fvjr8R/2Yfjf4V/aG+D959g8S+D9Sh1Swl/hMkLfNHJ/eilXMUy/xI5r/Y//AGHf2ufht+3R+y14N/aj+Fj/APEs8WWC3D2xfdJZ3Sfurq0l/wCmlvOrxP8A7u7vX+LBX9b/APwalf8ABSx/gB+0Zd/sD/FC/wDL8JfFG4+1eH2lf93Z+Ikj2+Sv91dRgjVf+u8cX/PSgD/R5opqncM06gAooooAKKKKAMXWNTsNC0i51vU5BDbWkbTyueixxLuZv++RX+In8cfibf8Axs+N3jP4zak5efxdr2qa25Pf7feSXP8A6C9f69n/AAVt+M//AAz7/wAEzvjl8Vlfyp9P8HapDatnGLq8haztv/Is6V/jfRQpbwpbJ0jVUX/gFAD6KKKACiiigAr/AEeP+DPf4yJ4x/4J/wDjX4N3Ll7jwP4zuHQZ+5a6vaw3S/8Akdbiv84ev7IP+DNj4xNoH7U/xf8AgPLKEh8TeF7HWooyfvzaPeNBJt/7ZXy/lQB/ocUUUUAFFFFABRRRQA1jtGa/zgP+DrH/AIKVv+0H+0nZ/sGfC+/8zwj8K7jzteMTfu7vxG8e3y2/vLp0Ehj/AOu8kv8Azzr+x3/gst/wUV0b/gmp+w74k+NtnLFJ4w1Qf2L4Ss5MHztYuUbypCn8UVoivczf7Ee3+Ja/yGtY1jV/EWsXniHxBdS32oahPJdXVzM2+We4mZpZJpG/iZ2Ys/8AtGgChRRRQAUUUUAFFFFABRRRQAUUUUAFFFFABRRRQAUUUUAFFFFABRRRQAUUUUAFFFFABRRRQB/pBf8ABnZcvJ/wTp8eWbgbYfiJfMp/39L02u1/4O9Yo5f+CWWiOesPxC0Vh/4C6gteff8ABnN/yj2+IP8A2UK6/wDTXp9ej/8AB3l/yiw0n/soWif+kt9QB/mhUUUUAFFFFABRRRQAUUUUAFMfesZ8lQX2/KD93dT6KAP9dT/ghcP2R9P/AOCY/wAMtD/Yz1iLXfDen2GzUrny1ivDrj/vNU+3wfeguftLt+6b7sWzYzRbGr9hK/x2f+CWv/BUn4+/8Esvj8nxT+FbnVfDOrGODxN4Zml2Wuq2qfxf9MLyHcfs1z/D9xt0TMtf6uH7GX7ZfwD/AG8vgFo/7Rf7OWsLq+gaqNjxsPLurK6Tb51new/8sbmFj86fRk3IyswB9bUUUUAFFFFABRRRQAUUUUAFFFFABRRRQAUUUUAFFFFABRRRQAUUUUAFf4A9f7/Ff4A9AH//0f7+KKKKACiiigAooooAKKKKACiiigAooooAKgk+7+K/zqeoJPu/iv8AOgD/ABFv2kv+TjfiL/2Neuf+nKevF69o/aS/5ON+Iv8A2Neuf+nKevF6ACiiigAooooAKKKKACiiigAooooAKKKKACiiigAooooAKKKKACiiigAooooAKKKKACtPRda1rwzrVn4k8OXkun6lptxHdWl1bt5csFxCyyxzRt/CyMqsn+0KzKKAP9fn/gjf/wAFEdH/AOClv7D3hv443UkUXjDTf+JN4ss4dq+Rq9sq+a6p/DFcoyXMP+xJt/hNfq/X+Ur/AMG8P/BSx/8Agnv+3JZeHvH2ofZfht8Tzb6D4h3ttgtbjzNum6k3937PK5imb/n3mdv+Wa1/qzo25aAH0UUUAFFFFAH8xn/B2P8AF8/Dr/glNceArWdYpvHvivR9IMf8TQ2zSanN/wCki/nX+Y1X9x//AAec/GFJdc+BP7Plo+Ghi1rxJdLn+/8AZ7G2b/0or+HCgAooooAKKKKACv3E/wCDcX4wp8Hf+Cw/womvJPLs/FJ1LwzNztz/AGjYyeQv/gTDDX4d17r+y58Wbv4CftM/Dn442LmOTwh4n0fWNwPRbO8hkk/8hKaAP9uBDuUNT6oWlxDeW6XNs6yRyKHRl6FW+6av0AFFFFABTHO1c0+v5wP+DlD/AIKXyfsLfsUXHwk+GmofZviR8W459G0sxN++sNN2hdS1D+8rJHIIIW/56yqy/wCragD+M/8A4OGP+Clb/wDBQj9uS/0HwFqH2r4bfDBrjQvD3ltmC6uPM26jqS/3vtEkaxQsP+WEKf3mr8FqZGqRxKiDaqrtUDtT6ACiiigAooooAKKKKACiiigAooooAKKKKACiiigAooooAKKKKACiiigAooooAKKKKACiiigD/R2/4M5v+Ue3xB/7KFdf+mvT69H/AODvL/lFhpP/AGULRP8A0lvq84/4M5v+Ue3xB/7KFdf+mvT69H/4O8v+UWGk/wDZQtE/9Jb6gD/NCooooAKKKKACiiigAooooAKKKKACv0m/4Jhf8FPfj/8A8EuPj7D8WfhJKdS8P6k0cHiTw1PIyWerWaN/5AuYefs1zs3I3yNuiZlr82aKAP8AaU/Yp/bX+Af7fnwA0n9on9nTVhqWjaiPKnhlwl3p92ir51newf8ALKeHPzL91l2ujMjK1fYlf473/BKb/gp58Yv+CXP7S9l8W/Bc0994Q1SSK28W+Hlb91qeno3zMq/dW7tlJa2l/vfum/dSMtf67/wu+Jngn4x/DfQfi58OL+PVPD/iWwt9T028i+5Pa3caywyL/vIwoA9CooooAKKKKACiiigAooooAKKKKACiiigAooooAKKKKACiiigAr/AHr/f4r/AHoA//0v7+KKKKACiiigAooooAKKKKACiiigAooooAKgk+7+K/zqeoJPu/iv8AOgD/ABFv2kv+TjfiL/2Neuf+nKevF69o/aS/5ON+Iv8A2Neuf+nKevF6ACiiigAooooAKKKKACiiigAooooAKKKKACiiigAooooAKKKKACiiigAooooAKKKKACiiigCORUeMo4yrLtYGv9R//g2w/wCCl8n7dH7FEPwm+JWo/aviR8I0t9G1RpW/fX2m7Sum6h/tM0cZgmb/AJ6wlm/1i1/lyV+jv/BKT/goB4n/AOCav7bHhX9pDTXlm0BX/svxRYRH/j80W5ZftC7f4pIdqXMP/TWJU/iagD/Y7orkfB/izw14/wDCWmeOvBl7FqWj61aQX1hdwHdFPa3EaywzRt/Eroysvsa66gAprfdp1Qy427P73FAH+XT/AMHU/wAYH+Jn/BW/WvCCTeZb+AfDWi6GgB+VZJo5NTm/9LV/75r+cOvuT/gpx8Yf+GgP+CiPxt+L8MnnW2seM9Y+ytnd/otncNZ23/kCBK+G6ACiiigAooooAKini+0W72v3fMVk/wC+6looA/2Z/wDgmJ8Zof2h/wDgnn8FvjJ5hmm1vwbo8l0xOc3UVqsFz/5GjevvGv5sv+DVH4xP8Tf+CSOg+DriQPN4B8Q61oBGeRG1x/aMP/kK9X8q/pNoAKKKKAOU8XeKvDngLwpqfjjxfexabpGj2s17e3cx2xQW9tG0s0sh/hVEUs3sK/x7v+Cr3/BQDxP/AMFJ/wBtnxV+0ffvLH4e3/2X4XspS3+h6HZs32Zdv8Mlxue5m/6ayFP4Vr+wz/g7K/4KWf8ACqfg1pv/AATt+FmobfEPj+BdR8UvAw3W2gpJ+5tW/utqE8fzL/z7wv8AwyV/nr0AFFFFABRRRQAUUUUAFFFFABRRRQAUUUUAFFFFABRRRQAUUUUAFFFFABRRRQAUUUUAFFFFABRRRQB/o7f8Gc3/ACj2+IP/AGUK6/8ATXp9ej/8HeX/ACiw0n/soWif+kt9XnH/AAZzf8o9viD/ANlCuv8A016fXo//AAd5f8osNJ/7KFon/pLfUAf5oVFFFABRRRQAUUUUAFFFFABRRRQAUUUUAFf6fX/BqT8cda+LP/BKTTvBeuzmeX4d+JdU8OW5bqLP93qFsv8Auot2Y0/2FWv8wWv9Mv8A4NIfhdrfgX/glpd+NtXieJPG3jPVtUs9w+VrW2jt9OVl/wB6S0koA/qNooooAKKKKACiiigAooooAKKKKACiiigAooooAKKKKACiiigAr/AHr/f4r/AHoA//0/7+KKKKACiiigAooooAKKKKACiiigAooooAKgk+7+K/zqeoJPu/iv8AOgD/ABFv2kv+TjfiL/2Neuf+nKevF69o/aS/5ON+Iv8A2Neuf+nKevF6ACiiigAooooAKKKKACiiigAooooAKKKKACiiigAooooAKKKKACiiigAooooAKKKKACiiigAooooA/wBCD/g0z/4KVn4pfB/U/wDgnR8U77fr3gKBtS8KtM3zXGhvJ++tF/vNYzuuxf8An3lX+COv7OK/xLv2Tv2mfiX+xr+0f4P/AGn/AIPzeXr3g3UI72CMsypcx/dubWT/AKZXEDPA/wDsP/s1/sjfsq/tJ/DX9r/9njwh+0v8H7n7V4e8ZabDqFrn78RcbZLeT+7LbyK8Uq9nQ0AfRdeGftNfFa2+Bf7OXj3413LBI/CPh3VNZJP/AE4Wsk//ALTr3Ovww/4OPPjCnwd/4I9fFyWGUw3nii3sfDdttPVtVvIYJF/78ebQB/k7Nd3mpMdS1Il7m4PnTE9TI/zSN/30xooY7mNFABRRRQAUUUUAFFFFAH91v/BmJ8YkFl8dv2fruU5jn0XxJaxZ/hmjmsbhv/INvX91df5ff/BqL8Ypvht/wVjs/AjSBIPH/hbWNIKk/KZrby9Th/8ASaX86/1Ak+7QA6vnb9qL9pD4Y/sj/s+eLv2lPi9c/ZPDng3TZtRuyv35NnEcMX96W4kKRQr/ABO6ivodjtGa/wA+b/g7S/4KV/8ACxPiZpX/AATd+FOoh9H8Iyw6z4wkgbKzao8e6ysWZf4bSJ/Pdf8AnrJF/FHQB/KZ+1x+098Sv2z/ANpLxj+098XJfM17xhqD3ssYfclpD9y2s4/+mVvAqQJ/ubv4q+daKKACiiigAooooAKKKKACiiigAooooAKKKKACiiigAooooAKKKKACiiigAooooAKKKKACiiigAooooA/0dv8Agzm/5R7fEH/soV1/6a9Pr0f/AIO8v+UWGk/9lC0T/wBJb6vOP+DOb/lHt8Qf+yhXX/pr0+vR/wDg7y/5RYaT/wBlC0T/ANJb6gD/ADQqKKKACiiigAooooAKKKKACiiigAoor6u/Yr/Ys+Pf7fn7QWj/ALN/7Oumfb9b1T97NcS7ks9Ps0ZfOvr2RP8AVwQ7v95mKxIrMyrQBtfsGfsMfHL/AIKI/tJ6J+zZ8CbN5LvUHWXUtSaNja6TpqMqzXt238KxL9xfvSy7Yk+Zq/2F/wBmr4A/D79lb4DeEv2c/hTbfZPD3gzS7fSrJD98x2y7PMk9ZJWzI7fxMxr5H/4Jgf8ABMH4Bf8ABLr9n+L4RfCOH7freoiK48R+IriNVvNWvUX77/8APKCLJW2t1+SJP7zszN+mNABRRRQAUUUUAFFFFABRRRQAUUUUAFFFFABRRRQAUUUUAFFFFABX+APX+/xX+APQB//U/v4ooooAKKKKACiiigAooooAKKKKACiiigAqCT7v4r/Op6gk+7+K/wA6AP8AEW/aS/5ON+Iv/Y165/6cp68Xr2j9pL/k434i/wDY165/6cp68XoAKKKKACiiigAooooAKKKKACiiigAooooAKKKKACiiigAooooAKKKKACiiigAooooAKKKKACiiigAr+zL/AINLv+ClQ+GnxV1T/gnF8VNQ2aJ40ll1fwg8zfLBrCR7r2xXd91buCPz0X/nrG/8U1fxm10/gnxp4t+G/jHSfiL4Av5dJ1zQb231DTr2A7Zba6tpFlgmX/aSRVagD/cvU7hmv43/APg8k+MLeHv2RvhP8CoHAfxV4tm1WVAfmMOj2Mi/98+bexflX9AH/BKj9vfwp/wUh/Yp8KftK6N5cOsXEf8AZ3iKxjP/AB5azZqq3cP+6zMJof8AplIlfxT/APB4b8X08W/t5fDz4NWcu6Hwd4N+1yx5+5caxeSM3/kK0i/OgD+SGiiigAooooAKKKKACiiigD78/wCCVnxhT4Bf8FKPgZ8WbmbyLbTfGelwXTZ6Wt/N9hn/APIVya/2Vo+n+7xX+FhDf3+jzJrGmuUurMrcQEfeEkLebG3/AH0q1/t1fs7fFG1+N/wA8EfGawKvD4u0DTdZQofl231rHP8A+z0AfK3/AAVG/by8If8ABOL9i/xf+014i8qfUbKD7F4fsHO37frVzuSyt/8Ad3Zkm/uRRu3av8eXx5458YfFDxxrPxL+IWoS6tr3iK9uNS1K9mO57m6uZGlmmb/fZi1f0T/8HNX/AAUr/wCG1P20X/Z++HGofafh98HZrjTITC2Yr3XH/dajdfJ95Ydv2SFv9iVk/wBZX811ABRRRQAUUUUAFFFFABRRRQAUUUUAFFFFABRRRQAUUUUAFFFFABRRRQAUUUUAFFFFABRRRQAUUUUAFFFFAH+jt/wZzf8AKPb4g/8AZQrr/wBNen16P/wd5f8AKLDSf+yhaJ/6S31ecf8ABnN/yj2+IP8A2UK6/wDTXp9ej/8AB3l/yiw0n/soWif+kt9QB/mhUUUUAFFFFABRRRQAUUUUAFFFfSX7JX7JXx4/bf8Ajvo37OX7OeivrPiTWX3c/JbWtum3zry6m/5Y20O752/3URGZlVgC5+x5+x78d/26/j7o37OH7O2knU9f1h8vI25bWytUZfOvr2T/AJZ20O752+8zbUTczKtf6u//AAS4/wCCW3wC/wCCWvwCi+FfwrhGqeItTEU/iXxHPEqXmq3ir97j/VWsOSttbK2yFP70jOzZv/BKX/glb8Cv+CWvwCi+HHw6iXVPFurpDN4m8Sypi41O6Rfur/zxtIclbaAfcX5m3Sszt+qtABRRRQAUUUUAFFFFABRRRQAUUUUAFFFFABRRRQAUUUUAFFFFABRRRQAV/gD1/v8AFf4A9AH/1f7+KKKKACiiigAooooAKKKKACiiigAooooAKgk+7+K/zqeoJPu/iv8AOgD/ABFv2kv+TjfiL/2Neuf+nKevF69o/aS/5ON+Iv8A2Neuf+nKevF6ACiiigAooooAKKKKACiiigAooooAKKKKACiiigAooooAKKKKACiiigAooooAKKKKACiiigAooooAKKKKAP6O/wDg2m/4KWf8MP8A7a8XwU+JGofZ/h18X5bfSrsyttista+7pt5/sq7N9kmb+7IjP/q6+T/+C/8A8YW+Nf8AwWA+NuvRtut9D1eHw3B/dC6JZw2cq/8Af9Za/HRWdWDoSGU5UjtW34m8SeIfGniS/wDGHi29m1LVdWuJLy7vLlt889xM26SSRm+8zsxZ2oAxKKKKACiiigAooooAKKKKAAfeFf3j+D/+Cxafsk/8GyPww1jwZquPipr1nqHw78OgH97bTaVcTWs9/wD7tjY+Uyf9NXgT+Kv4OK273xN4k1TQdN8K6lfzT6Xo7TvYWjSMYrZrxlkuGjX+HzWjRn/vYX+7QBiFnZtzkuW6ljlj/tM38TUUUUAFFFFABRRRQAUUUUAFFFFABRRRQAUUUUAFFFFABRRRQAUUUUAFFFFABRRRQAUUUUAFFFFABRRRQAUUUUAf6O3/AAZzf8o9viD/ANlCuv8A016fXo//AAd5f8osNJ/7KFon/pLfV5x/wZzf8o9viD/2UK6/9Nen16P/AMHeX/KLDSf+yhaJ/wCkt9QB/mhUUUUAFFFFABRRRQAUUV77+zB+zB8bv2xvjdof7O37POiSa94o1+XZBAp2RQwp/rrq4k+7DbQr800jfd/2nZVYAs/srfsqfHT9tP456L+zt+zrokmueJdbf5EX5ILa3T/XXV3N9yG2hVtzyN/som52VW/1aP8Agkv/AMEn/gh/wSx+AkfgPwWE1nxrrSxz+J/ErxbJ9QuF+7HH3htIclYYPqz7pGZqyv8AgkZ/wSS+Cn/BKr4Ff8In4U2a/wCPdfSGTxR4lki2S3syfdt4Fb5obGFi3kxfWR8u1fr/AEAFFFFABRRRQAUUUUAFFFFABRRRQAUUUUAFFFFABRRRQAUUUUAFFFFABRRRQAV/gD1/v8V/gD0Af//W/v4ooooAKKKKACiiigAooooAKKKKACiiigAqCT7v4r/Op6gk+7+K/wA6AP8AEW/aS/5ON+Iv/Y165/6cp68Xr2j9pL/k434i/wDY165/6cp68XoAKKKKACiiigAooooAKKKKACiiigAooooAKKKKACiiigAooooAKKKKACiiigAooooAKKKKACiiigAooooAKKKKACiiigAooooAKKKKACiiigAooooAKKKKACiiigAooooAKKKKACiiigAooooAKKKKACiiigAooooAKKKKACiiigAooooAKKKKACiiigAooooAKKKKAP8AR2/4M5v+Ue3xB/7KFdf+mvT69E/4O8j/AMasNHH/AFUHRP8A0lvq87/4M5v+Ue3xB/7KFdf+mvT6/pX/AGov2Yfgr+2N8ENd/Z4/aB0WHXPC/iKDyriGT5JI5P8AllcQSfehnhbDQyJ8yMKAP8TKiv1e/wCCtf8AwSc+Nn/BKv4+N4J8WedrfgPXZZH8LeJhHtjvYU+Zre52fJHfW6/66P8AiX97F8rfL+UNABRRRQAUUV7T+zt+zv8AGX9q74zaF+z9+z9oM/iLxX4im8izs4Pl/wBqSaaT7kEEK/NNO3yIlAFn9mv9m340/tefGvQf2ef2ftEl1/xV4im8i1to/ljRU/1lxNJ9yG2hX5ppG+RE/wBrarf6rX/BIH/gkJ8Ff+CVXwU/sLQRDr/xE8QRRt4m8TtFte4dPmW1tVb5oLGFvuR/edv3ku5z8tX/AII9f8Ee/gz/AMEqPgr/AGZpvka/8S/EUEZ8UeJzHhpmX5vsdkG+aGxhb7i/elb97L821U/ZagAooooAKKKKACiiigAooooAKKKKACiiigAooooAKKKKACiiigAooooAKKKKACiiigAr/AHr/f4r/AHoA//X/v4ooooAKKKKACiiigAooooAKKKKACiiigAqCT7v4r/Op6gk+7+K/wA6AP8AEW/aS/5ON+Iv/Y165/6cp68Xr2j9pL/k434i/wDY165/6cp68XoAKKKKACiiigAooooAKKKKACiiigAooooAKKKKACiiigAooooAKKKKACiiigAooooAKKKKACiiigAooooAKKKKACiiigAooooAKKKKACiiigAooooAKKKKACiiigAooooAKKKKACiiigAooooAKKKKACiiigAooooAKKKKACiiigAooooAKKKKACiiigAooooAKKKKAP8AR2/4M5v+Ue3xB/7KFdf+mvT6/rir+R3/AIM5v+Ue3xB/7KFdf+mvT6/rioA+XP2vP2Q/gT+3D8B9b/Zw/aL0ZdY8Oa3HjA+W4tbhP9Rd2k33obmFvmSRf91tyFlb/KO/4Ko/8Eqfj/8A8EsfjtN8P/iTDLrHg/VJZD4Z8VQw7LTU7f73lyfwQ30K/wCutm/3ot0TK1f7CleP/GX4F/CH9ob4e3/wm+OHhvTvFfhnVU2XOnanAlxbyf3W2P0Zf4GX5l/hZaAP8Qeiv9IT9ob/AINB/wBgP4ka5PrvwK8WeKfhp9odn+wRSQ6tp8X+zGl6v2hV/wBn7Q1eTfDP/gzU/ZT0XXku/i38YPFviSwU7jaWFpY6Vv8A9lptty3/AHztoA/g9/Z5/Z3+NP7V3xg0f4B/s9+HrnxP4q12XZa2VsOi/wAU00n3IIIfvTTy7URK/wBUL/gjT/wRy+EX/BKz4K+S32bxF8UfEsEbeJvEqx/fx8y2Nlu+aOxhb/gc7/vZf4VT7N/Yv/4J3fsff8E/PBcvgv8AZV8E2fhpLwL9uvvmuNRvWTvd3s7PcTf7Ks+xP4FWvuCgAooooAKKKKACiiigAooooAKKKKACiiigAooooAKKKKACiiigAooooAKKKKACiiigAooooAK/wB6/3+K/wB6AP//Q/v4ooooAKKKKACiiigAooooAKKKKACiiigAqCT7v4r/Op6gk+7+K/wA6AP8AEW/aS/5ON+Iv/Y165/6cp68Xr2j9pL/k434i/wDY165/6cp68XoAKKKKACiiigAooooAKKKKACiiigAooooAKKKKACiiigAooooAKKKKACiiigAooooAKKKKACiiigAooooAKKKKACiiigAooooAKKKKACiiigAooooAKKKKACiiigAooooAKKKKACiiigAooooAKKKKACiiigAooooAKKKKACiiigAooooAKKKKACiiigAooooAKKKKAP8AR2/4M5v+Ue3xB/7KFdf+mvT6/rir+R3/AIM5v+Ue3xB/7KFdf+mvT6/rioAKKKKACiiigAooooAKKKKACiiigAooooAKKKKACiiigAooooAKKKKACiiigAooooAKKKKACiiigAooooAKKKKACv8AAHr/AH+K/wAAegD/0f7+KKKKACiiigAooooAKKKKACiiigAooooAKgk+7+K/zqeoJPu/iv8AOgD/ABFv2kv+TjfiL/2Neuf+nKevF69o/aS/5ON+Iv8A2Neuf+nKevF6ACiiigAooooAKKKKACiiigAooooAKKKKACiiigAooooAKKKKACiiigAooooAKKKKACiiigAooooAKKKKACiiigAooooAKKKKACiiigAooooAKKKKACiiigAooooAKKKKACiiigAooooAKKKKACiiigAooooAKKKKACiiigAooooAKKKKACiiigAooooAKKKKACiiigD/AEdv+DOb/lHt8Qf+yhXX/pr0+v64q/kd/wCDOb/lHt8Qf+yhXX/pr0+v64qACiiigAooooAKKKKACiiigAooooAKKKKACiiigAooooAKKKKACiiigAooooAKKKKACiiigAooooAKKKKACiiigAr/AAB6/wB/iv8AAHoA/9L+/iiiigAooooAKKKKACiiigAooooAKKKKACoJPu/iv86nqCT7v4r/ADoA/wARb9pL/k434i/9jXrn/pynrxevaP2kv+TjfiL/ANjXrn/pynrxegAooooAKKKKACiiigAooooAKKKKACiiigAooooAKKKKACiiigAooooAKKKKACiiigAooooAKKKKACiiigAooooAKKKKACiiigAooooAKKKKACiiigAooooAKKKKACiiigAooooAKKKKACiiigAooooAKKKKACiiigAooooAKKKKACiiigAooooAKKKKACiiigAooooA/wBHb/gzm/5R7fEH/soV1/6a9Pr+uKv5Hf8Agzm/5R7fEH/soV1/6a9Pr+uKgAooooAKKKKACiiigAooooAKKKKACiiigAooooAKKKKACiiigAooooAKKKKACiiigAooooAKKKKACiiigAooooAK/wAAev8Af4r/AAB6AP/T/v4ooooAKKKKACiiigAooooAKKKKACiiigAqCT7v4r/Op6gk+7+K/wA6AP8AEW/aS/5ON+Iv/Y165/6cp68Xr2j9pL/k434i/wDY165/6cp68XoAKKKKACiiigAooooAKKKKACiiigAooooAKKKKACiiigAooooAKKKKACiiigAooooAKKKKACiiigAooooAKKKKACiiigAooooAKKKKACiiigAooooAKKKKACiiigAooooAKKKKACiiigAooooAKKKKACiiigAooooAKKKKACiiigAooooAKKKKACiiigAooooAKKKKAP8AR2/4M5v+Ue3xB/7KFdf+mvT6/rir+R3/AIM5v+Ue3xB/7KFdf+mvT6/rioAKKKKACiiigAooooAKKKKACiiigAooooAKKKKACiiigAooooAKKKKACiiigAooooAKKKKACiiigAooooAKKKKACv8AAHr/AH+K/wAAegD/1P7+KKKKACiiigAooooAKKKKACiiigAooooAKgk+7+K/zqeoJPu/iv8AOgD/ABFv2kv+TjfiL/2Neuf+nKevF69o/aS/5ON+Iv8A2Neuf+nKevF6ACiiigAooooAKKKKACiiigAooooAKKKKACiiigAooooAKKKKACiiigAooooAKKKKACiiigAooooAKKKKACiiigAooooAKKKKACiiigAooooAKKKKACiiigAooooAKKKKACiiigAooooAKKKKACiiigAooooAKKKKACiiigAooooAKKKKACiiigAooooAKKKKACiiigD/AEdv+DOb/lHt8Qf+yhXX/pr0+v64q/kd/wCDOb/lHt8Qf+yhXX/pr0+v64qACiiigAooooAKKKKACiiigAooooAKKKKACiiigAooooAKKKKACiiigAooooAKKKKACiiigAooooAKKKKACiiigAr/AAB6/wB/iv8AAHoA/9X+/iiiigAooooAKKKKACiiigAooooAKKKKACoJPu/iv86nqCT7v4r/ADoA/wARb9pL/k434i/9jXrn/pynrxevaP2kv+TjfiL/ANjXrn/pynrxegAooooAKKKKACiiigAooooAKKKKACiiigAooooAKKKKACiiigAooooAKKKKACiiigAooooAKKKKACiiigAooooAKKKKACiiigAooooAKKKKACiiigAooooAKKKKACiiigAooooAKKKKACiiigAooooAKKKKACiiigAooooAKKKKACiiigAooooAKKKKACiiigAooooA/wBHb/gzm/5R7fEH/soV1/6a9Pr+uKv5Hf8Agzm/5R7fEH/soV1/6a9Pr+uKgAooooAKKKKACiiigAooooAKKKKACiiigAooooAKKKKACiiigAooooAKKKKACiiigAooooAKKKKACiiigAooooAK/wAAev8Af4r/AAB6AP/W/v4ooooAKKKKACiiigAooooAKKKKACiiigAqCT7v4r/Op6gk+7+K/wA6AP8AEW/aS/5ON+Iv/Y165/6cp68Xr2j9pL/k434i/wDY165/6cp68XoAKKKKACiiigAooooAKKKKACiiigAooooAKKKKACiiigAooooAKKKKACiiigAooooAKKKKACiiigAooooAKKKKACiiigAooooAKKKKACiiigAooooAKKKKACiiigAooooAKKKKACiiigAooooAKKKKACiiigAooooAKKKKACiiigAooooAKKKKACiiigAooooAKKKKAP8AR2/4M5v+Ue3xB/7KFdf+mvT6/rir+R3/AIM5v+Ue3xB/7KFdf+mvT6/rioAKKKKACiiigAooooAKKKKACiiigAooooAKKKKACiiigAooooAKKKKACiiigAooooAKKKKACiiigAooooAKKKKACv8AAHr/AH+K/wAAegD/1/7+KKKKACiiigAooooAKKKKACiiigAooooAKgk+7+K/zqeoJPu/iv8AOgD/ABFv2kv+TjfiL/2Neuf+nKevF69o/aS/5ON+Iv8A2Neuf+nKevF6ACiiigAooooAKKKKACiiigAooooAKKKKACiiigAooooAKKKKACiiigAooooAKKKKACiiigAooooAKKKKACiiigAooooAKKKKACiiigAooooAKKKKACiiigAooooAKKKKACiiigAooooAKKKKACiiigAooooAKKKKACiiigAooooAKKKKACiiigAooooAKKKKACiiigD/AEdv+DOb/lHt8Qf+yhXX/pr0+v64q/kd/wCDOb/lHt8Qf+yhXX/pr0+v64qACiiigAooooAKKKKACiiigAooooAKKKKACiiigAooooAKKKKACiiigAooooAKKKKACiiigAooooAKKKKACiiigAr/AAB6/wB/iv8AAHoA/9D+/iiiigAooooAKKKKACiiigAooooAKKKKACoJPu/iv86nqCT7v4r/ADoA/wARb9pL/k434i/9jXrn/pynrxevaP2kv+TjfiL/ANjXrn/pynrxegAooooAKKKKACiiigAooooAKKKKACiiigAooooAKKKKACiiigAooooAKKKKACiiigAooooAKKKKACiiigAooooAKKKKACiiigAooooAKKKKACiiigAooooAKKKKACiiigAooooAKKKKACiiigAooooAKKKKACiiigAooooAKKKKACiiigAooooAKKKKACiiigAooooA/wBHb/gzm/5R7fEH/soV1/6a9Pr+uKv5Hf8Agzm/5R7fEH/soV1/6a9Pr+uKgAooooAKKKKACiiigAooooAKKKKACiiigAooooAKKKKACiiigAooooAKKKKACiiigAooooAKKKKACiiigAooooAK/wAAev8Af4r/AAB6AP/R/v4ooooAKKKKACiiigAooooAKKKKACiiigAqCT7v4r/Op6gk+7+K/wA6AP8AEW/aS/5ON+Iv/Y165/6cp68Xr2j9pL/k434i/wDY165/6cp68XoAKKKKACiiigAooooAKKKKACiiigAooooAKKKKACiiigAooooAKKKKACiiigAooooAKKKKACiiigAooooAKKKKACiiigAooooAKKKKACiiigAooooAKKKKACiiigAooooAKKKKACiiigAooooAKKKKACiiigAooooAKKKKACiiigAooooAKKKKACiiigAooooAKKKKAP8AR2/4M5v+Ue3xB/7KFdf+mvT6/rir+R3/AIM5v+Ue3xB/7KFdf+mvT6/rioAKKKKACiiigAooooAKKKKACiiigAooooAKKKKACiiigAooooAKKKKACiiigAooooAKKKKACiiigAooooAKKKKACv8AAHr/AH+K/wAAegD/0v7+KKKKACiiigAooooAKKKKACiiigAooooAKifoPqKlooA/yxvjd/wbnf8ABY3xb8a/GXivw78IxPp+ra/q17ay/wBuaKu+3ub6aWNtrXm5dysrbWrzP/iGt/4LT/8ARHF/8H2h/wDydX+sF5aelLsT0FAH+T5/xDW/8Fp/+iOL/wCD7Q//AJOo/wCIa3/gtP8A9EcX/wAH2h//ACdX+sHsT0FGxPQUAf5Pn/ENb/wWn/6I4v8A4PtD/wDk6j/iGt/4LT/9EcX/AMH2h/8AydX+sHsT0FGxPQUAf5Pn/ENb/wAFp/8Aoji/+D7Q/wD5Oo/4hrf+C0//AERxf/B9of8A8nV/rB7E9BRsT0FAH+T5/wAQ1v8AwWn/AOiOL/4PtD/+TqP+Ia3/AILT/wDRHF/8H2h//J1f6wexPQUbE9BQB/k+f8Q1v/Baf/oji/8Ag+0P/wCTqP8AiGt/4LT/APRHF/8AB9of/wAnV/rB7E9BRsT0FAH+T5/xDW/8Fp/+iOL/AOD7Q/8A5Oo/4hrf+C0//RHF/wDB9of/AMnV/rB7E9BRsT0FAH+T5/xDW/8ABaf/AKI4v/g+0P8A+TqP+Ia3/gtP/wBEcX/wfaH/APJ1f6wexPQUbE9BQB/k+f8AENb/AMFp/wDoji/+D7Q//k6j/iGt/wCC0/8A0Rxf/B9of/ydX+sHsT0FGxPQUAf5Pn/ENb/wWn/6I4v/AIPtD/8Ak6j/AIhrf+C0/wD0Rxf/AAfaH/8AJ1f6wexPQUbE9BQB/k+f8Q1v/Baf/oji/wDg+0P/AOTqP+Ia3/gtP/0Rxf8AwfaH/wDJ1f6wexPQUbE9BQB/k+f8Q1v/AAWn/wCiOL/4PtD/APk6j/iGt/4LT/8ARHF/8H2h/wDydX+sHsT0FGxPQUAf5Pn/ABDW/wDBaf8A6I4v/g+0P/5Oo/4hrf8AgtP/ANEcX/wfaH/8nV/rB7E9BRsT0FAH+T5/xDW/8Fp/+iOL/wCD7Q//AJOo/wCIa3/gtP8A9EcX/wAH2h//ACdX+sHsT0FGxPQUAf5Pn/ENb/wWn/6I4v8A4PtD/wDk6j/iGt/4LT/9EcX/AMH2h/8AydX+sHsT0FGxPQUAf5Pn/ENb/wAFp/8Aoji/+D7Q/wD5Oo/4hrf+C0//AERxf/B9of8A8nV/rB7E9BRsT0FAH+T5/wAQ1v8AwWn/AOiOL/4PtD/+TqP+Ia3/AILT/wDRHF/8H2h//J1f6wexPQUbE9BQB/k+f8Q1v/Baf/oji/8Ag+0P/wCTqP8AiGt/4LT/APRHF/8AB9of/wAnV/rB7E9BRsT0FAH+T5/xDW/8Fp/+iOL/AOD7Q/8A5Oo/4hrf+C0//RHF/wDB9of/AMnV/rB7E9BRsT0FAH+T5/xDW/8ABaf/AKI4v/g+0P8A+TqP+Ia3/gtP/wBEcX/wfaH/APJ1f6wexPQUbE9BQB/k+f8AENb/AMFp/wDoji/+D7Q//k6j/iGt/wCC0/8A0Rxf/B9of/ydX+sHsT0FGxPQUAf5Pn/ENb/wWn/6I4v/AIPtD/8Ak6j/AIhrf+C0/wD0Rxf/AAfaH/8AJ1f6wexPQUbE9BQB/k+f8Q1v/Baf/oji/wDg+0P/AOTqP+Ia3/gtP/0Rxf8AwfaH/wDJ1f6wexPQUbE9BQB/k+f8Q1v/AAWn/wCiOL/4PtD/APk6j/iGt/4LT/8ARHF/8H2h/wDydX+sHsT0FGxPQUAf5Pn/ABDW/wDBaf8A6I4v/g+0P/5Oo/4hrf8AgtP/ANEcX/wfaH/8nV/rB7E9BRsT0FAH+T5/xDW/8Fp/+iOL/wCD7Q//AJOo/wCIa3/gtP8A9EcX/wAH2h//ACdX+sHsT0FGxPQUAf5Pn/ENb/wWn/6I4v8A4PtD/wDk6j/iGt/4LT/9EcX/AMH2h/8AydX+sHsT0FGxPQUAf5Pn/ENb/wAFp/8Aoji/+D7Q/wD5Oo/4hrf+C0//AERxf/B9of8A8nV/rB7E9BRsT0FAH+T5/wAQ1v8AwWn/AOiOL/4PtD/+TqP+Ia3/AILT/wDRHF/8H2h//J1f6wexPQUbE9BQB/k+f8Q1v/Baf/oji/8Ag+0P/wCTqP8AiGt/4LT/APRHF/8AB9of/wAnV/rB7E9BRsT0FAH+T5/xDW/8Fp/+iOL/AOD7Q/8A5Oo/4hrf+C0//RHF/wDB9of/AMnV/rB7E9BRsT0FAH+T5/xDW/8ABaf/AKI4v/g+0P8A+TqP+Ia3/gtP/wBEcX/wfaH/APJ1f6wexPQUbE9BQB/k+f8AENb/AMFp/wDoji/+D7Q//k6j/iGt/wCC0/8A0Rxf/B9of/ydX+sHsT0FGxPQUAf5Pn/ENb/wWn/6I4v/AIPtD/8Ak6j/AIhrf+C0/wD0Rxf/AAfaH/8AJ1f6wexPQUbE9BQB/k+f8Q1v/Baf/oji/wDg+0P/AOTqP+Ia3/gtP/0Rxf8AwfaH/wDJ1f6wexPQUbE9BQB/k+f8Q1v/AAWn/wCiOL/4PtD/APk6j/iGt/4LT/8ARHF/8H2h/wDydX+sHsT0FGxPQUAf5Pn/ABDW/wDBaf8A6I4v/g+0P/5Oo/4hrf8AgtP/ANEcX/wfaH/8nV/rB7E9BRsT0FAH+T5/xDW/8Fp/+iOL/wCD7Q//AJOo/wCIa3/gtP8A9EcX/wAH2h//ACdX+sHsT0FGxPQUAfzo/wDBtb+w1+1H+wN+xz4w+FX7V/hn/hFte1Txlcara232u1vd9m+n2UCv5lpLMq/vInXazbvlr+jCmhQvSnUAFFFFABRRRQAUUUUAFFFFABRRRQAUUUUAFFFFABRRRQAUUUUAFFFFABRRRQAUUUUAFFFFABRRRQAUUUUAFFFFABX+APX+/wAV/gD0Af/T/v4ooooAKKKKACiiigAooooAKKKKACiiigAooooAKKKKACiiigAooooAKKKKACiiigAooooAKKKKACiiigAooooAKKKKACiiigAooooAKKKKACiiigAooooAKKKKACiiigAooooAKKKKACiiigAooooAKKKKACiiigAooooAKKKKACiiigAooooAKKKKACiiigAooooAKKKKACiiigAooooAKKKKACiiigAooooAKKKKACiiigAooooAKKKKACiiigAooooAKKKKACiiigAooooAKKKKACiiigAooooAKKKKACiiigAooooAKKKKACiiigAooooAKKKKACv8Aev9/iv8AegD/9k=;" parent="1" vertex="1">
          <mxGeometry x="682" y="573" width="101.5" height="98.66" as="geometry" />
        </mxCell>
        <mxCell id="-ZI4ClVhzQf8G4WTaBH7-13" value="Administrator" style="text;html=1;strokeColor=none;fillColor=none;align=center;verticalAlign=middle;whiteSpace=wrap;rounded=0;" parent="1" vertex="1">
          <mxGeometry x="695" y="669" width="60" height="30" as="geometry" />
        </mxCell>
        <mxCell id="-ZI4ClVhzQf8G4WTaBH7-14" value="&lt;font style=&quot;font-size: 10px;&quot;&gt;User registration&lt;/font&gt;" style="ellipse;whiteSpace=wrap;html=1;" parent="1" vertex="1">
          <mxGeometry x="401" y="657" width="105" height="42" as="geometry" />
        </mxCell>
        <mxCell id="-ZI4ClVhzQf8G4WTaBH7-15" value="&lt;font style=&quot;font-size: 10px;&quot;&gt;User login&lt;/font&gt;" style="ellipse;whiteSpace=wrap;html=1;" parent="1" vertex="1">
          <mxGeometry x="401" y="592" width="104" height="41" as="geometry" />
        </mxCell>
        <mxCell id="-ZI4ClVhzQf8G4WTaBH7-16" value="&lt;font style=&quot;font-size: 10px;&quot;&gt;Browse courses&lt;/font&gt;" style="ellipse;whiteSpace=wrap;html=1;" parent="1" vertex="1">
          <mxGeometry x="401" y="535" width="103" height="38" as="geometry" />
        </mxCell>
        <mxCell id="-ZI4ClVhzQf8G4WTaBH7-17" value="&lt;span style=&quot;font-size: 10px;&quot;&gt;Enroll in a course&lt;/span&gt;" style="ellipse;whiteSpace=wrap;html=1;" parent="1" vertex="1">
          <mxGeometry x="397" y="787" width="111" height="40" as="geometry" />
        </mxCell>
        <mxCell id="-ZI4ClVhzQf8G4WTaBH7-19" value="&lt;font style=&quot;font-size: 9px;&quot;&gt;Create and publich course, materials&lt;/font&gt;" style="ellipse;whiteSpace=wrap;html=1;" parent="1" vertex="1">
          <mxGeometry x="401" y="469" width="107" height="41" as="geometry" />
        </mxCell>
        <mxCell id="-ZI4ClVhzQf8G4WTaBH7-20" value="&lt;font style=&quot;font-size: 9px;&quot;&gt;User review and rating&lt;/font&gt;" style="ellipse;whiteSpace=wrap;html=1;" parent="1" vertex="1">
          <mxGeometry x="399" y="724" width="111" height="41" as="geometry" />
        </mxCell>
        <mxCell id="-ZI4ClVhzQf8G4WTaBH7-21" value="&lt;font style=&quot;font-size: 8px;&quot;&gt;Admin course management&lt;/font&gt;" style="ellipse;whiteSpace=wrap;html=1;" parent="1" vertex="1">
          <mxGeometry x="504" y="628" width="123" height="34" as="geometry" />
        </mxCell>
        <mxCell id="-ZI4ClVhzQf8G4WTaBH7-22" value="" style="endArrow=classic;html=1;rounded=0;entryX=0;entryY=0.5;entryDx=0;entryDy=0;" parent="1" source="-ZI4ClVhzQf8G4WTaBH7-1" target="-ZI4ClVhzQf8G4WTaBH7-19" edge="1">
          <mxGeometry width="50" height="50" relative="1" as="geometry">
            <mxPoint x="488" y="661" as="sourcePoint" />
            <mxPoint x="402" y="517" as="targetPoint" />
          </mxGeometry>
        </mxCell>
        <mxCell id="-ZI4ClVhzQf8G4WTaBH7-23" value="" style="endArrow=classic;html=1;rounded=0;entryX=0.015;entryY=0.348;entryDx=0;entryDy=0;entryPerimeter=0;" parent="1" source="-ZI4ClVhzQf8G4WTaBH7-1" target="-ZI4ClVhzQf8G4WTaBH7-15" edge="1">
          <mxGeometry width="50" height="50" relative="1" as="geometry">
            <mxPoint x="307" y="534" as="sourcePoint" />
            <mxPoint x="411" y="499" as="targetPoint" />
          </mxGeometry>
        </mxCell>
        <mxCell id="-ZI4ClVhzQf8G4WTaBH7-24" value="" style="endArrow=classic;html=1;rounded=0;entryX=0;entryY=0.5;entryDx=0;entryDy=0;" parent="1" source="-ZI4ClVhzQf8G4WTaBH7-1" target="-ZI4ClVhzQf8G4WTaBH7-14" edge="1">
          <mxGeometry width="50" height="50" relative="1" as="geometry">
            <mxPoint x="307" y="557" as="sourcePoint" />
            <mxPoint x="413" y="616" as="targetPoint" />
          </mxGeometry>
        </mxCell>
        <mxCell id="-ZI4ClVhzQf8G4WTaBH7-25" value="" style="endArrow=classic;html=1;rounded=0;entryX=0;entryY=0.5;entryDx=0;entryDy=0;" parent="1" source="-ZI4ClVhzQf8G4WTaBH7-1" target="-ZI4ClVhzQf8G4WTaBH7-16" edge="1">
          <mxGeometry width="50" height="50" relative="1" as="geometry">
            <mxPoint x="307" y="572" as="sourcePoint" />
            <mxPoint x="411" y="688" as="targetPoint" />
          </mxGeometry>
        </mxCell>
        <mxCell id="-ZI4ClVhzQf8G4WTaBH7-26" value="" style="endArrow=classic;html=1;rounded=0;entryX=0;entryY=0.5;entryDx=0;entryDy=0;" parent="1" source="-ZI4ClVhzQf8G4WTaBH7-2" target="-ZI4ClVhzQf8G4WTaBH7-17" edge="1">
          <mxGeometry width="50" height="50" relative="1" as="geometry">
            <mxPoint x="307" y="572" as="sourcePoint" />
            <mxPoint x="411" y="688" as="targetPoint" />
          </mxGeometry>
        </mxCell>
        <mxCell id="-ZI4ClVhzQf8G4WTaBH7-27" value="" style="endArrow=classic;html=1;rounded=0;entryX=0;entryY=0.5;entryDx=0;entryDy=0;" parent="1" source="-ZI4ClVhzQf8G4WTaBH7-2" target="-ZI4ClVhzQf8G4WTaBH7-20" edge="1">
          <mxGeometry width="50" height="50" relative="1" as="geometry">
            <mxPoint x="307" y="755" as="sourcePoint" />
            <mxPoint x="407" y="817" as="targetPoint" />
          </mxGeometry>
        </mxCell>
        <mxCell id="-ZI4ClVhzQf8G4WTaBH7-28" value="" style="endArrow=classic;html=1;rounded=0;entryX=0;entryY=0.5;entryDx=0;entryDy=0;exitX=1;exitY=0.3333333333333333;exitDx=0;exitDy=0;exitPerimeter=0;" parent="1" source="-ZI4ClVhzQf8G4WTaBH7-2" target="-ZI4ClVhzQf8G4WTaBH7-14" edge="1">
          <mxGeometry width="50" height="50" relative="1" as="geometry">
            <mxPoint x="307" y="742" as="sourcePoint" />
            <mxPoint x="409" y="754" as="targetPoint" />
          </mxGeometry>
        </mxCell>
        <mxCell id="-ZI4ClVhzQf8G4WTaBH7-29" value="" style="endArrow=classic;html=1;rounded=0;entryX=0;entryY=0.5;entryDx=0;entryDy=0;" parent="1" target="-ZI4ClVhzQf8G4WTaBH7-15" edge="1">
          <mxGeometry width="50" height="50" relative="1" as="geometry">
            <mxPoint x="298" y="710" as="sourcePoint" />
            <mxPoint x="369" y="725" as="targetPoint" />
          </mxGeometry>
        </mxCell>
        <mxCell id="-ZI4ClVhzQf8G4WTaBH7-30" value="" style="endArrow=classic;html=1;rounded=0;entryX=0;entryY=0.5;entryDx=0;entryDy=0;" parent="1" source="-ZI4ClVhzQf8G4WTaBH7-2" target="-ZI4ClVhzQf8G4WTaBH7-16" edge="1">
          <mxGeometry width="50" height="50" relative="1" as="geometry">
            <mxPoint x="308" y="720" as="sourcePoint" />
            <mxPoint x="398" y="580" as="targetPoint" />
          </mxGeometry>
        </mxCell>
        <mxCell id="-ZI4ClVhzQf8G4WTaBH7-31" value="" style="endArrow=classic;html=1;rounded=0;exitX=0;exitY=0.75;exitDx=0;exitDy=0;entryX=1;entryY=0.5;entryDx=0;entryDy=0;" parent="1" source="-ZI4ClVhzQf8G4WTaBH7-11" target="-ZI4ClVhzQf8G4WTaBH7-21" edge="1">
          <mxGeometry width="50" height="50" relative="1" as="geometry">
            <mxPoint x="488" y="705" as="sourcePoint" />
            <mxPoint x="538" y="655" as="targetPoint" />
          </mxGeometry>
        </mxCell>
        <mxCell id="-ZI4ClVhzQf8G4WTaBH7-32" value="" style="endArrow=classic;html=1;rounded=0;exitX=0;exitY=0.25;exitDx=0;exitDy=0;entryX=1;entryY=0.5;entryDx=0;entryDy=0;" parent="1" source="-ZI4ClVhzQf8G4WTaBH7-11" target="-ZI4ClVhzQf8G4WTaBH7-19" edge="1">
          <mxGeometry width="50" height="50" relative="1" as="geometry">
            <mxPoint x="692" y="657" as="sourcePoint" />
            <mxPoint x="516" y="527" as="targetPoint" />
          </mxGeometry>
        </mxCell>
        <mxCell id="-ZI4ClVhzQf8G4WTaBH7-33" value="" style="endArrow=classic;html=1;rounded=0;exitX=0;exitY=0.5;exitDx=0;exitDy=0;entryX=1;entryY=0.5;entryDx=0;entryDy=0;" parent="1" source="-ZI4ClVhzQf8G4WTaBH7-11" target="-ZI4ClVhzQf8G4WTaBH7-16" edge="1">
          <mxGeometry width="50" height="50" relative="1" as="geometry">
            <mxPoint x="692" y="608" as="sourcePoint" />
            <mxPoint x="518" y="499" as="targetPoint" />
          </mxGeometry>
        </mxCell>
        <mxCell id="-ZI4ClVhzQf8G4WTaBH7-34" value="" style="endArrow=classic;html=1;rounded=0;exitX=0;exitY=0.5;exitDx=0;exitDy=0;entryX=1;entryY=0.5;entryDx=0;entryDy=0;" parent="1" target="-ZI4ClVhzQf8G4WTaBH7-15" edge="1">
          <mxGeometry width="50" height="50" relative="1" as="geometry">
            <mxPoint x="692" y="632" as="sourcePoint" />
            <mxPoint x="514" y="564" as="targetPoint" />
          </mxGeometry>
        </mxCell>
        <mxCell id="-ZI4ClVhzQf8G4WTaBH7-35" value="" style="endArrow=classic;html=1;rounded=0;exitX=-0.04;exitY=0.856;exitDx=0;exitDy=0;entryX=1;entryY=0.5;entryDx=0;entryDy=0;exitPerimeter=0;" parent="1" source="-ZI4ClVhzQf8G4WTaBH7-11" target="-ZI4ClVhzQf8G4WTaBH7-14" edge="1">
          <mxGeometry width="50" height="50" relative="1" as="geometry">
            <mxPoint x="702" y="642" as="sourcePoint" />
            <mxPoint x="515" y="623" as="targetPoint" />
          </mxGeometry>
        </mxCell>
        <mxCell id="-ZI4ClVhzQf8G4WTaBH7-36" value="" style="endArrow=classic;html=1;rounded=0;exitX=-0.04;exitY=0.856;exitDx=0;exitDy=0;entryX=1;entryY=0.5;entryDx=0;entryDy=0;exitPerimeter=0;" parent="1" target="-ZI4ClVhzQf8G4WTaBH7-20" edge="1">
          <mxGeometry width="50" height="50" relative="1" as="geometry">
            <mxPoint x="688" y="667" as="sourcePoint" />
            <mxPoint x="516" y="688" as="targetPoint" />
          </mxGeometry>
        </mxCell>
        <mxCell id="-ZI4ClVhzQf8G4WTaBH7-37" value="" style="endArrow=classic;html=1;rounded=0;entryX=1;entryY=0.5;entryDx=0;entryDy=0;exitX=0;exitY=0;exitDx=0;exitDy=0;" parent="1" source="-ZI4ClVhzQf8G4WTaBH7-13" target="-ZI4ClVhzQf8G4WTaBH7-17" edge="1">
          <mxGeometry width="50" height="50" relative="1" as="geometry">
            <mxPoint x="698" y="677" as="sourcePoint" />
            <mxPoint x="520" y="754" as="targetPoint" />
          </mxGeometry>
        </mxCell>
      </root>
    </mxGraphModel>
  </diagram>
</mxfile>
